<svg height="512" viewBox="0 0 64 64" width="512" xmlns="http://www.w3.org/2000/svg"><g id="Fill_1" fill="#c6782a" data-name="Fill 1"><path d="m32.08 4h-.08a28 28 0 1 0 28 28c0-.86-.04-1.71-.12-2.54a7.8429 7.8429 0 0 1 -2.88.54 7.9979 7.9979 0 0 1 -8-8 7.1717 7.1717 0 0 1 .07-1.04 10.0013 10.0013 0 0 1 -9.07-9.96 9.8878 9.8878 0 0 1 .51-3.14 8.3049 8.3049 0 0 1 -1.51.14 7.9684 7.9684 0 0 1 -6.92-4z"/><path d="m53 19 4-4 3 1v7z"/><path d="m53 9-6 2v-6l6-1z"/></g><g id="Fill_2" fill="#42362e" data-name="Fill 2"><circle cx="28" cy="49" r="3"/><path d="m47 39c0 2.2091-1.7909 5-4 5s-3-2.7909-3-5 .7909-4 3-4a4 4 0 0 1 4 4z"/><path d="m31.1213 21.1213c-1.5621 1.5621-3.3876 2.2692-4.95.7071a4 4 0 0 1 0-5.6568c1.5624-1.5616 5.2666-2.7337 6.8287-1.1716s-.3166 4.5592-1.8787 6.1213z"/><circle cx="16" cy="33" r="4"/></g><g id="Effect_Line" data-name="Effect Line"><path d="m42.001 54.8237a1 1 0 0 1 -.418-1.9087 23.0268 23.0268 0 0 0 12.4229-14.2065 1 1 0 0 1 1.914.583 25.0328 25.0328 0 0 1 -13.5029 15.4409.9931.9931 0 0 1 -.416.0913z" fill="#955a20"/><g fill="#ddac6c"><path d="m8.999 26.1377a.9891.9891 0 0 1 -.2861-.0425 1 1 0 0 1 -.6719-1.2446 25.1145 25.1145 0 0 1 10.1514-13.6836 1 1 0 1 1 1.1076 1.666 23.1088 23.1088 0 0 0 -9.343 12.5908 1.0009 1.0009 0 0 1 -.958.7139z"/><circle cx="22" cy="10" r="1"/></g></g><g id="Line"><path d="m32 61a29 29 0 0 1 0-58 1.135 1.135 0 0 1 .9473.5024 7.0171 7.0171 0 0 0 7.3808 3.3741.9994.9994 0 0 1 1.13 1.3 8.9932 8.9932 0 0 0 7.7041 11.7881.9987.9987 0 0 1 .8978 1.1404 6.31 6.31 0 0 0 -.06.895 7.0081 7.0081 0 0 0 7 7 6.8329 6.8329 0 0 0 2.5137-.4707 1 1 0 0 1 1.3613.8345c.083.8579.125 1.7451.125 2.6362a29.0331 29.0331 0 0 1 -29 29zm-.4736-55.9961a27 27 0 1 0 27.4736 26.9961c0-.4077-.01-.8149-.0283-1.2173a9.0054 9.0054 0 0 1 -10.9717-8.7827c0-.06.001-.1187.002-.1777a11.0005 11.0005 0 0 1 -8.8174-12.8243 8.98 8.98 0 0 1 -7.6582-3.9941z"/><path d="m28 53a4 4 0 1 1 4-4 4.0042 4.0042 0 0 1 -4 4zm0-6a2 2 0 1 0 2 2 2.0023 2.0023 0 0 0 -2-2z"/><path d="m43 45c-2.7627 0-4-3.0137-4-6 0-3.1309 1.4951-5 4-5a5.0059 5.0059 0 0 1 5 5c0 2.7744-2.1846 6-5 6zm0-9c-.4951 0-2 0-2 3 0 1.6079.5322 4 2 4 1.5449 0 3-2.2534 3-4a3.0033 3.0033 0 0 0 -3-3z"/><path d="m28.0957 23.7051a3.6733 3.6733 0 0 1 -2.6309-1.17 5.0064 5.0064 0 0 1 0-7.0712 8.356 8.356 0 0 1 3.9034-2.0264 4.5571 4.5571 0 0 1 4.3388.855c.5713.5708 1.39 1.8691.45 4.1484a11.0816 11.0816 0 0 1 -2.3291 3.3867 6.1067 6.1067 0 0 1 -2.9775 1.7974 3.6892 3.6892 0 0 1 -.7547.0801zm2.78-8.4419a5.0107 5.0107 0 0 0 -1.0733.1269 6.3527 6.3527 0 0 0 -2.9238 1.4883 3.0037 3.0037 0 0 0 0 4.2432 1.6151 1.6151 0 0 0 1.5635.5459 4.262 4.262 0 0 0 1.9717-1.2534 9.203 9.203 0 0 0 1.8938-2.7341c.3789-.92.374-1.5835-.0146-1.9727a1.9915 1.9915 0 0 0 -1.417-.4441z"/><path d="m16 38a5 5 0 1 1 5-5 5.0059 5.0059 0 0 1 -5 5zm0-8a3 3 0 1 0 3 3 3.0033 3.0033 0 0 0 -3-3z"/><path d="m60 24a.9983.9983 0 0 1 -.4961-.1318l-7-4a1 1 0 0 1 -.2109-1.5752l4-4a1 1 0 0 1 1.0234-.2417l3 1a1 1 0 0 1 .6836.9487v7a1 1 0 0 1 -1 1zm-5.3672-5.2187 4.3672 2.4956v-4.5562l-1.73-.5767z"/><path d="m47 12a1 1 0 0 1 -1-1v-6a1 1 0 0 1 .8359-.9863l6-1a.9994.9994 0 0 1 1.1641.9863v5a1 1 0 0 1 -.6836.9487l-6 2a1.0071 1.0071 0 0 1 -.3164.0513zm1-6.1528v3.7656l4-1.3335v-3.0986z"/><circle cx="48" cy="15" r="1"/><circle cx="45" cy="29" r="1"/><circle cx="35" cy="29" r="1"/><circle cx="16" cy="22" r="1"/><circle cx="29" cy="37" r="1"/><circle cx="18" cy="47" r="1"/><circle cx="42" cy="50" r="1"/></g></svg>