<?xml version="1.0" encoding="iso-8859-1"?>
<!-- Generator: Adobe Illustrator 19.0.0, SVG Export Plug-In . SVG Version: 6.00 Build 0)  -->
<svg version="1.1" id="Capa_1" xmlns="http://www.w3.org/2000/svg" xmlns:xlink="http://www.w3.org/1999/xlink" x="0px" y="0px"
	 viewBox="0 0 512.001 512.001" style="enable-background:new 0 0 512.001 512.001;" xml:space="preserve">
<polygon style="fill:#00E5FF;" points="348.958,185.657 347.572,205.741 326.866,504.991 140.085,504.991 124.591,281.056 
	119.379,205.741 117.993,185.657 "/>
<path style="fill:#40C4FF;" d="M117.993,185.657l1.386,20.084h173.846v75.315h-19.381l9.912,91
	c-2.188-2.016-4.587-3.808-7.181-5.302c-7.14-48.422-48.965-85.698-99.335-85.698h-52.65l15.495,223.936h120.152
	c3.916-4.047,7.24-8.586,9.901-13.496c2.48-4.569,4.368-9.439,5.634-14.48c3.334-1.818,6.437-4.127,9.198-6.889
	c3.467-3.463,6.214-7.454,8.184-11.786l5.081,46.652h28.63l20.705-299.25h0.002l0.671-9.717l0.022-0.325l0.693-10.042
	L117.993,185.657L117.993,185.657z"/>
<path style="fill:#FDD8A8;" d="M257.576,461.811c0,7.27-1.838,14.119-5.081,20.084c-1.948,3.595-4.398,6.869-7.27,9.741
	c-7.632,7.632-18.176,12.352-29.825,12.352H68.787c-16.027,0-29.955-8.927-37.095-22.092c-3.244-5.965-5.081-12.814-5.081-20.084
	H257.576z"/>
<path style="fill:#FFC477;" d="M257.576,461.811c0,7.27-1.838,14.119-5.081,20.084H31.692c-3.244-5.965-5.081-12.814-5.081-20.084
	H257.576z"/>
<path style="fill:#FF9017;" d="M276.656,441.727c0,5.543-2.249,10.564-5.885,14.199s-8.656,5.885-14.199,5.885H27.615
	c-11.096,0-20.084-8.988-20.084-20.084c0-5.222,1.998-9.982,5.272-13.557c0.191-0.221,0.402-0.432,0.613-0.643
	c3.635-3.635,8.656-5.885,14.199-5.885h228.957c6.286,0,11.9,2.882,15.575,7.411C274.969,432.508,276.656,436.927,276.656,441.727z"
	/>
<path style="fill:#FF7043;" d="M272.147,429.054l-46.344,32.757H60.392L12.803,428.17c0.191-0.221,0.402-0.432,0.613-0.643
	c3.635-3.635,8.656-5.885,14.199-5.885h228.957C262.858,421.643,268.472,424.525,272.147,429.054z"/>
<path style="fill:#B0EF60;" d="M276.656,401.559c0,5.543-2.249,10.564-5.885,14.199c-3.635,3.635-8.656,5.885-14.199,5.885H27.615
	c-11.096,0-20.084-8.988-20.084-20.084c0-5.543,2.249-10.564,5.885-14.199c3.635-3.635,8.656-5.885,14.199-5.885h228.957
	C267.668,381.475,276.656,390.463,276.656,401.559z"/>
<polygon style="fill:#FDD844;" points="247.835,421.643 38.36,421.643 110.813,472.857 143.098,450.036 175.383,472.857 "/>
<g>
	<polygon style="fill:#FDAB08;" points="183.266,421.643 154.857,441.727 143.098,450.032 125.695,462.333 119.75,458.136 
		68.135,421.643 	"/>
	<polygon style="fill:#FDAB08;" points="247.835,421.643 219.427,441.727 66.769,441.727 38.36,421.643 	"/>
</g>
<path style="fill:#FDD844;" d="M308.79,23.088v0.994c0,6.999-4.82,13.075-11.639,14.661l-48.613,11.347v66.277h-30.126V25.99
	l71.74-17.533C299.642,6.137,308.79,13.317,308.79,23.088z"/>
<path style="fill:#64DD17;" d="M264.823,401.559H19.371c-7.328,0-11.206-8.869-6.063-14.09c0.036-0.036,0.072-0.073,0.108-0.109
	c3.635-3.635,8.656-5.885,14.199-5.885h228.957c5.605,0,10.674,2.294,14.316,5.994C276.028,392.692,272.151,401.559,264.823,401.559
	z"/>
<path style="fill:#FDD8A8;" d="M257.576,381.475H26.611c0-6.939,0.884-13.667,2.531-20.084
	c3.635-14.119,11.006-26.732,20.998-36.723c14.541-14.531,34.625-23.528,56.807-23.528h70.294c37.426,0,68.888,25.607,77.805,60.252
	C256.692,367.808,257.576,374.536,257.576,381.475z"/>
<g>
	<rect x="313.309" y="215.782" style="fill:#FDD844;" width="30.126" height="167.701"/>
	<rect x="342.933" y="237.874" style="fill:#FDD844;" width="30.126" height="167.701"/>
	<rect x="373.059" y="215.782" style="fill:#FDD844;" width="30.126" height="167.701"/>
	<rect x="403.184" y="237.874" style="fill:#FDD844;" width="30.126" height="167.701"/>
	<rect x="433.31" y="237.874" style="fill:#FDD844;" width="30.126" height="167.701"/>
	<rect x="463.436" y="204.736" style="fill:#FDD844;" width="30.126" height="167.701"/>
</g>
<rect x="218.412" y="96.283" style="fill:#FDAB08;" width="30.126" height="20.084"/>
<polygon style="fill:#FFFFFF;" points="340.924,150.51 126.027,150.51 132.524,130.426 137.073,116.368 329.878,116.368 
	334.427,130.426 "/>
<polygon style="fill:#FDAB08;" points="493.562,281.056 493.562,372.438 463.436,372.438 463.436,405.576 403.184,405.576 
	403.184,383.484 373.059,383.484 373.059,405.576 342.933,405.576 342.933,383.484 313.309,383.484 313.309,281.056 
	342.511,281.056 342.933,282.231 343.435,283.636 364.101,341.307 435.74,341.307 457.331,281.056 "/>
<polygon style="fill:#F4511E;" points="471.47,301.14 449.88,361.391 349.962,361.391 328.372,301.14 296.238,301.14 
	318.33,503.987 481.512,503.987 503.604,301.14 "/>
<polygon style="fill:#D8D7DA;" points="340.924,150.51 126.027,150.51 132.524,130.426 334.427,130.426 "/>
<polygon style="fill:#FFFFFF;" points="369.042,185.657 97.909,185.657 108.955,150.51 357.996,150.51 "/>
<path style="fill:#FFC477;" d="M257.576,381.475H26.611c0-6.939,0.884-13.667,2.531-20.084h225.904
	C256.692,367.808,257.576,374.536,257.576,381.475z"/>
<polygon style="fill:#B0BEC5;" points="345.353,473.861 336.384,391.517 463.457,391.517 454.489,473.861 "/>
<path d="M284.187,401.559c0-12.333-8.127-22.799-19.305-26.335c-3.217-45.543-41.294-81.616-87.642-81.616h-44.23l-6.947-100.42
	h253.24l0,0l-15.78-50.21h-17.12l-11.046-34.143H256.07V56.068l42.791-9.985c10.281-2.399,17.461-11.447,17.461-22.004v-0.993
	c0-6.983-3.15-13.46-8.642-17.772c-5.493-4.311-12.534-5.833-19.316-4.176l-77.483,18.94v88.759h-79.287l-11.046,34.143h-17.12
	l-15.78,50.21h23.316l6.947,100.42h-10.965c-46.349,0-84.425,36.073-87.642,81.616C8.127,378.76,0,389.228,0,401.559
	c0,7.908,3.347,15.045,8.691,20.084C3.347,426.682,0,433.819,0,441.727c0,12.402,8.218,22.919,19.494,26.395
	c3.113,24.438,24.023,43.396,49.293,43.396H215.4c25.27,0,46.181-18.958,49.293-43.396c11.276-3.477,19.494-13.993,19.494-26.395
	c0-7.908-3.347-15.045-8.691-20.084C280.84,416.604,284.187,409.467,284.187,401.559z M225.944,31.903l65.995-16.132
	c2.261-0.553,4.608-0.045,6.439,1.392c1.831,1.437,2.881,3.597,2.881,5.924v0.993c0,3.519-2.394,6.534-5.82,7.335l-54.431,12.7
	v64.722h-15.063V31.903z M142.552,123.899L142.552,123.899h181.848l0,0l6.172,19.08H136.38L142.552,123.899z M108.171,178.126
	l6.312-20.084l0,0h237.984l0,0l6.312,20.084l0,0H108.171L108.171,178.126z M106.947,308.671h70.294
	c37.601,0,68.637,28.655,72.418,65.273H34.529C38.31,337.326,69.346,308.671,106.947,308.671z M27.615,389.007h228.957
	c6.922,0,12.552,5.631,12.552,12.552c0,6.922-5.631,12.552-12.552,12.552l0,0H27.615l0,0c-6.922,0-12.552-5.631-12.552-12.552
	C15.063,394.637,20.693,389.007,27.615,389.007z M175.383,463.634l-48.751-34.46h97.502L175.383,463.634z M130.05,450.037
	l-19.237,13.598l-48.751-34.46h38.475L130.05,450.037z M15.063,441.727c0-6.922,5.631-12.552,12.552-12.552h8.351l35.515,25.105
	H27.615C20.693,454.279,15.063,448.649,15.063,441.727z M215.4,496.456H68.787c-16.517,0-30.372-11.62-33.82-27.113h57.825
	l18.021,12.738l32.285-22.821l32.286,22.821l18.021-12.738h55.816C245.772,484.836,231.917,496.456,215.4,496.456z M269.124,441.727
	c0,6.922-5.631,12.552-12.552,12.552h-41.858l35.516-25.105h6.341C263.494,429.175,269.124,434.805,269.124,441.727z"/>
<path d="M501.093,293.608v-96.403h-45.189v33.138l0,0h-45.189l0,0v-22.092h-45.189v22.092h-14.561v-22.092h-45.189v85.357h-17.936
	l23.733,217.91h176.693l23.733-217.91H501.093z M470.968,212.268h15.063v81.34h-15.063V212.268L470.968,212.268z M455.905,245.407
	v76.844l-11.326,31.609h-3.737V245.407L455.905,245.407L455.905,245.407z M425.779,245.407V353.86h-15.063V245.407L425.779,245.407
	L425.779,245.407z M380.59,223.314h15.063l0,0V353.86H380.59V223.314L380.59,223.314z M365.527,245.407V353.86h-10.264
	l-4.297-11.992v-96.461H365.527z M320.84,223.314h15.063v76.517l-2.23-6.223H320.84V223.314z M474.755,496.456H325.086
	l-20.451-187.785h18.436l21.59,60.252h110.521l21.59-60.252h18.436L474.755,496.456z"/>
<path d="M338.598,481.393h122.647l10.608-97.407H327.988L338.598,481.393z M455.06,399.049l-7.328,67.281h-95.625l-7.328-67.281
	H455.06z"/>
<g>
	<rect x="88.871" y="324.737" style="fill:#FFFFFF;" width="15.063" height="15.063"/>
	<rect x="119.329" y="333.775" style="fill:#FFFFFF;" width="15.063" height="15.063"/>
	<rect x="149.796" y="333.775" style="fill:#FFFFFF;" width="15.063" height="15.063"/>
	<rect x="180.253" y="324.737" style="fill:#FFFFFF;" width="15.063" height="15.063"/>
	<path style="fill:#FFFFFF;" d="M264.605,223.314h-19.936v-15.063h19.936V223.314z M229.606,223.314h-79.331v-15.063h79.331V223.314
		z"/>
	<path style="fill:#FFFFFF;" d="M437.076,440.221h-14.059v-15.063h14.059V440.221z M407.954,440.221h-15.063v-15.063h15.063V440.221
		z M377.828,440.221h-15.063v-15.063h15.063V440.221z"/>
</g>
<g>
</g>
<g>
</g>
<g>
</g>
<g>
</g>
<g>
</g>
<g>
</g>
<g>
</g>
<g>
</g>
<g>
</g>
<g>
</g>
<g>
</g>
<g>
</g>
<g>
</g>
<g>
</g>
<g>
</g>
</svg>
