<svg height="512" viewBox="0 0 128 128" width="512" xmlns="http://www.w3.org/2000/svg"><g><g><g><path d="m113.952 29.17v-10.989h-19.9v10.989a35.871 35.871 0 0 1 -3.774 16.016 35.871 35.871 0 0 0 -3.778 16.014v54.3a6 6 0 0 0 6 6h23a6 6 0 0 0 6-6v-54.3a35.871 35.871 0 0 0 -3.774-16.016 35.878 35.878 0 0 1 -3.774-16.014z" fill="#eaeaf0"/><g fill="#3ba9fd"><path d="m91.048 18.181h25.904v9h-25.904z"/><path d="m86.5 60.998h35v25h-35z"/></g></g><g><path d="m60.028 15.5h-49.556l-3.972 16v90h57.5v-90z" fill="#3ba9fd"/><path d="m60.028 15.5h-49.556l-3.972 16h57.5z" fill="#eaeaf0"/><path d="m6.5 56.996h57.5v39.808h-57.5z" fill="#eaeaf0"/><path d="m41.25 79.42a6 6 0 0 1 -12 0c0-5.73 6-11.04 6-11.04s6 5.31 6 11.04z" fill="#3ba9fd"/></g><g><path d="m103.81 101.3a4.485 4.485 0 0 0 3.44 4.37v15.83h-54.5v-32.36c0-5.08 8.5-13.48 19.61-14.48l34.89 14.48v7.79a4.485 4.485 0 0 0 -3.44 4.37z" fill="#ff9800"/><path d="m103.81 101.3a4.485 4.485 0 0 0 3.44 4.37v15.83h-54.5v-32.36h54.5v7.79a4.485 4.485 0 0 0 -3.44 4.37z" fill="#fdd82e"/><circle cx="71.438" cy="89.14" fill="#fdd82e" r="3"/><g fill="#ff9800"><circle cx="90.875" cy="112.558" r="3"/><circle cx="63.25" cy="103.808" r="3"/></g></g></g><g fill="#001d38"><path d="m88.506 49.249a1.749 1.749 0 0 0 2.281-.959c.32-.784.673-1.564 1.048-2.317q.15-.3.294-.6a1.75 1.75 0 0 0 -3.159-1.507c-.087.182-.176.363-.266.545-.415.833-.8 1.693-1.157 2.557a1.751 1.751 0 0 0 .959 2.281z"/><path d="m123.25 61c0-.028-.007-.055-.008-.083a37.805 37.805 0 0 0 -3.948-16.51 34.184 34.184 0 0 1 -3.594-15.237v-.239h1.252a1.751 1.751 0 0 0 1.75-1.75v-9a1.75 1.75 0 0 0 -1.75-1.75h-25.9a1.75 1.75 0 0 0 -1.75 1.75v9a1.751 1.751 0 0 0 1.75 1.75h1.248v.239a34.1 34.1 0 0 1 -1.209 9 1.75 1.75 0 0 0 3.376.924 37.574 37.574 0 0 0 1.333-9.924v-.239h16.4v.239a37.688 37.688 0 0 0 3.964 16.8 34.293 34.293 0 0 1 3.529 13.277h-31.386a33.579 33.579 0 0 1 .856-5.873 1.75 1.75 0 0 0 -3.406-.81 37.36 37.36 0 0 0 -1 8.352c0 .027-.008.053-.008.081s0 .03 0 .045v.157 16.709l-11.718-4.864a1.8 1.8 0 0 0 -.828-.127 26.806 26.806 0 0 0 -6.453 1.419v-42.836a1.763 1.763 0 0 0 -.048-.394.27.27 0 0 0 0-.028l-3.92-15.792v-8.786a1.751 1.751 0 0 0 -1.75-1.75h-49.56a1.751 1.751 0 0 0 -1.75 1.75v8.786l-3.922 15.792a.27.27 0 0 0 0 .028 1.763 1.763 0 0 0 -.048.394v90a1.751 1.751 0 0 0 1.75 1.75h109a7.759 7.759 0 0 0 7.75-7.75v-54.3c0-.052 0-.1 0-.156-.006-.016-.002-.03-.002-.044zm-30.45-41.069h22.4v5.5h-22.4zm-4.55 42.817h31.5v21.5h-19.722l-11.778-4.888zm10.218 24.642h-22.624a4.736 4.736 0 0 0 -8.813 0h-12.131c1.625-4.071 8.237-9.975 17.2-10.945zm-28.279 1.742a1.25 1.25 0 1 1 0 .016zm-19.189.008v5.914h-42.75v-36.308h47.313a1.75 1.75 0 0 0 0-3.5h-47.313v-22h54v42.579c-6.614 3.351-11.25 8.88-11.25 13.315zm-39.159-71.89h46.818l3.1 12.5h-53.021zm46.437-9v5.5h-46.056v-5.5zm-5.528 104.375a1.751 1.751 0 0 0 -1.75 1.75v5.375h-42.75v-21.2h42.75v7.2a1.75 1.75 0 0 0 3.5 0v-14.86h12.531a4.736 4.736 0 0 0 8.813 0h29.656v4.824a6.255 6.255 0 0 0 0 11.172v12.864h-51v-5.375a1.751 1.751 0 0 0 -1.75-1.75zm62.75 7.125h-6.5v-14.08a1.75 1.75 0 0 0 -1.346-1.7 2.745 2.745 0 0 1 0-5.334 1.75 1.75 0 0 0 1.346-1.706v-7.79a1.739 1.739 0 0 0 -.069-.459c-.01-.036-.021-.071-.033-.106a1.718 1.718 0 0 0 -.187-.394l-.008-.015a1.76 1.76 0 0 0 -.3-.333c-.028-.025-.056-.048-.086-.07l-.017-.015h11.45v27.752a4.255 4.255 0 0 1 -4.25 4.25z"/><path d="m12.5 70.375a1.751 1.751 0 0 0 -1.75 1.75v6.917a1.75 1.75 0 0 0 3.5 0v-6.917a1.751 1.751 0 0 0 -1.75-1.75z"/><path d="m36.41 67.069a1.751 1.751 0 0 0 -2.32 0c-.269.239-6.59 5.907-6.59 12.35a7.75 7.75 0 0 0 15.5 0c0-6.443-6.321-12.111-6.59-12.35zm-1.16 16.6a4.255 4.255 0 0 1 -4.25-4.25c0-3.424 2.66-6.83 4.25-8.56 1.59 1.73 4.25 5.137 4.25 8.56a4.255 4.255 0 0 1 -4.25 4.25z"/><path d="m86.125 112.558a4.75 4.75 0 1 0 4.75-4.75 4.756 4.756 0 0 0 -4.75 4.75zm4.75-1.25a1.25 1.25 0 1 1 -1.25 1.25 1.251 1.251 0 0 1 1.25-1.25z"/><circle cx="86.375" cy="96.803" r="1.5"/><circle cx="95.375" cy="102.933" r="1.5"/><circle cx="75.042" cy="81.042" r="1.5"/><circle cx="64" cy="83.25" r="1.5"/><circle cx="69.937" cy="114.625" r="1.5"/><circle cx="78.875" cy="107.25" r="1.5"/><path d="m63.25 108.558a4.75 4.75 0 1 0 -4.75-4.75 4.756 4.756 0 0 0 4.75 4.75zm0-6a1.25 1.25 0 1 1 -1.25 1.25 1.251 1.251 0 0 1 1.25-1.25z"/></g></g></svg>