<svg id="圖層_5" height="512" viewBox="0 0 500 500" width="512" xmlns="http://www.w3.org/2000/svg" data-name="圖層 5"><g fill="#2ea7e0"><path d="m16.28 369.55q.93-57 2.49-114l-2.72 2.29c5.77-.42 11.55-.65 17.34-.6 2.57 0 5.15.1 7.71.22 2.83.14 6.73-.24 9.4.72 3.86 1.38 5.43 11.29 6.66 14.91l5.67 16.74 22.38 66 6-1.72a414.64 414.64 0 0 1 -40.05-92.67l-5.8 1.66c5.68 8.55 8.73 18.44 11.9 28.11l10.24 31.26c1.09 3.31 7.69 3.67 6.49-.24a395.11 395.11 0 0 0 -18.99-50.13c-2.44-5.32-4.53-13.14-11.45-13.72-7.39-.62-16.44 7.4-23.21 2.44l.15 4.62a34.61 34.61 0 0 1 16-4.76l-2.64-5.43a10.46 10.46 0 0 1 -10 1.09l-.6 5.52a107.5 107.5 0 0 0 27.44-1.86l-4.61-2.68a171.39 171.39 0 0 1 2 20l5.83-.91a135.07 135.07 0 0 1 -9.6-15.28c-1.35-2.5-7.25-2.86-6.24 1a208 208 0 0 0 11.19 31.67c1.23 2.74 7.25 2.71 6.24-1l-7.09-25.8-6.24 1 18.08 52 6-1.72-9.22-26-6.03 1.72 14 37.9 6-1.72-15.66-36.28c-1.46-3.39-7.42-2.29-6 1.73l16.66 46.68c1 2.93 7.21 2.62 6.24-1l-4.74-17.63-6.24 1 8.46 23.75 6-1.72-4-10c-.93-2.31-6.42-3.1-6.28.23.25 5.84.66 12.18 5.22 16.43a11.74 11.74 0 0 0 13.34 2.29 2.54 2.54 0 0 0 .92-3.36l-13.35-21.66c-1.82-3-7.85-2.31-6 1.72l10.64 23c1.53 3.32 7.64 2.24 6-1.73-12.14-29.13-20-59.69-27.87-90.2l-6.24 1q8.65 24.42 19.43 48l6-1.72-2.39-4.19c-1.79-3.16-8.1-2-6 1.72l2.39 4.19c1.75 3.09 7.81 2.27 6-1.72q-10.77-23.55-19.43-48c-1-2.93-7.16-2.63-6.23 1 7.94 31 16 62.08 28.36 91.69l6-1.73-10.66-23.03-6 1.72 13.34 21.64.91-3.36c-6.59 3.08-7.68-8.73-7.84-12.49l-6.27.22 4 10c1.38 3.44 7.42 2.29 6-1.72l-8.46-23.76c-1-2.93-7.21-2.62-6.24 1l4.72 17.64 6.24-1-16.63-46.63-6 1.73 15.66 36.27c1.46 3.39 7.47 2.29 6-1.72l-14-37.91c-1.27-3.46-7.41-2.3-6 1.72l9.22 26c1.23 3.48 7.39 2.31 6-1.72l-18.07-52c-1-2.95-7.23-2.61-6.24 1l7.09 25.8 6.24-1a197.08 197.08 0 0 1 -10.69-30.24l-6.24 1a148.19 148.19 0 0 0 10.49 16.64c1.24 1.71 5.94 2 5.83-.91a184.12 184.12 0 0 0 -2.07-21.48c-.34-2.13-2.75-3-4.61-2.68a101.25 101.25 0 0 1 -25.88 1.6c-3.48-.22-3.24 4.44-.59 5.52a17.49 17.49 0 0 0 16.52-1.28c2.92-1.84 0-5.56-2.64-5.42a41.22 41.22 0 0 0 -19 5.64c-1.83 1.07-1.35 3.52.15 4.62 5.21 3.82 11 3.42 17 1.83 2.68-.71 6.17-2.68 8.95-2.55 3.87.19 5.63 7.25 7 10.3a384.93 384.93 0 0 1 18.04 47.81l6.49-.24q-5.73-17.49-11.46-35c-3.14-9.55-6.48-18.86-12.08-27.28-1.45-2.19-6.75-1.6-5.79 1.66a420.88 420.88 0 0 0 40.55 94.19c1.81 3.1 7.39 2.42 6-1.72l-25.21-74.39c-2.1-6.2-4.18-12.41-6.31-18.6-1.4-4.08-2.91-7.32-7.36-8.46-5.33-1.38-11.69-1.11-17.16-1.25-6.75-.16-13.49.06-20.23.55-1.21.09-2.68.9-2.72 2.3q-1.56 57-2.49 114c-.06 3.6 6.49 5.14 6.56 1.27z"/><path d="m28.25 371.14a978.24 978.24 0 0 1 3.24-105c.3-3.58-6.09-5.16-6.56-1.27q-1.93 15.88-5.26 31.47l6.56 1.27-1.5-40.5c-.13-3.49-6.51-5.22-6.56-1.27q-.42 31.66 2.31 63.24l6.48-.24-3.11-34.11c-.28-3.08-6.4-4.07-6.52-.52a468.62 468.62 0 0 0 2.17 63.58l6.49-.24-3.81-36.55c-.32-3.07-6.64-4-6.52-.51q.77 23.78 2.95 47.48c.29 3.08 6.33 4.06 6.53.51a42.58 42.58 0 0 0 -3.05-18.5c-1-2.4-6.17-3.06-6.27.23a276.68 276.68 0 0 0 .69 30.34l2.69-3.05-6.1.57 1.9 5.69c6.46-2 8.75-10.4 3.75-15.22-2.69-2.6-8.25 0-5.1 3.09a3.89 3.89 0 0 1 -1.38 6.52c-3.69 1.17-1.31 6 1.93 5.74l6.1-.57a2.69 2.69 0 0 0 2.7-3.05 264.19 264.19 0 0 1 -.62-28.83l-6.28.22a35.59 35.59 0 0 1 2.48 15.51l6.52.51q-2.12-22.93-2.89-46l-6.52-.51 3.81 36.58c.37 3.58 6.9 3.84 6.49-.24a456.16 456.16 0 0 1 -2.1-62.07l-6.53-.44 3.12 34.11c.32 3.59 6.84 3.84 6.48-.24q-2.65-30.87-2.23-61.76l-6.56-1.27 1.5 40.5c.13 3.5 5.71 5.24 6.56 1.27q3.35-15.6 5.26-31.45l-6.56-1.27a978.24 978.24 0 0 0 -3.24 105c.08 3.58 6.64 5.11 6.56 1.27z"/><path d="m31.49 264-.31-.06a3.17 3.17 0 0 0 -3 .85c-2.46 2.87.82 5.89 3.84 5.92 4 0 8.12-.58 12.12-.88l-2.65-5.42a60.28 60.28 0 0 1 -11.9 4.19c-3.87.93-1.16 5.85 1.93 5.73a45.23 45.23 0 0 0 13-2.44c4-1.4.74-6.81-2.73-5.6a39.35 39.35 0 0 1 -11.36 2.18l1.92 5.73a67.47 67.47 0 0 0 13.34-4.81c3.17-1.52-.14-5.61-2.65-5.42l-6.39.48-2.95.22-1.47.11c-1.17.05-1.31.09-.42.11l2.09 2.47v-.39l-.57 2.14.25-.29-3 .85.31.06c4.3.83 4.55-5 .58-5.73z"/><path d="m90.46 339.78 12.91-52.38 6.21-25.22c.67-2.73.62-5.57 3.07-7 2.11-1.25 4.76-.64 7.14-.57q6.57.21 13.14.45l-3.64-4.3q-21.18 51-38.07 103.63l6.08.51a29.24 29.24 0 0 1 -1.84-13.9c.3-3.06-5.16-5.25-6.36-2l-3.57 9.56 6.37 2c3.16-15.95 6.9-31.79 11.33-47.44q3.1-11 6.64-21.89c.84-2.62 6.44-23.55 10.54-21.09l2.23-5a22.38 22.38 0 0 0 -14.59 2.32c-3.36 1.75.55 6.28 3.44 5.3l14.15-4.84-4.45-4.18a270.79 270.79 0 0 0 -29.35 86.26c-.49 3.08 5.43 5.24 6.37 2q7.79-27.08 17.79-53.44c2.66-6.94 7.89-15.58 6.53-23.34-1-5.89-6.26-10.52-12.32-10l2.64 5.42a28.6 28.6 0 0 1 17.39-3.56c4.32.5 4.63-5.26.58-5.72a35.92 35.92 0 0 0 -22.13 4.29c-3 1.67 0 5.66 2.64 5.42 5.58-.5 5 6.83 4 10.21s-2.51 6.72-3.8 10q-3.65 9.34-7 18.8-6.83 19.44-12.53 39.2l6.36 2a265.79 265.79 0 0 1 29-84.81c1.33-2.45-2.29-4.92-4.45-4.18l-14.15 4.84 3.45 5.3a15.1 15.1 0 0 1 9.84-1.59c2.94.49 5.17-3.23 2.23-5-5.94-3.55-11.75-.75-14.58 5.27-4.28 9.11-6.8 19.56-9.7 29.17q-8.77 29.11-14.66 59c-.62 3.12 5.19 5.14 6.36 2l3.56-9.57-6.36-2a35.78 35.78 0 0 0 2.41 16.88c.81 2.09 5.23 3.15 6.08.51q16.88-52.58 38.06-103.62c1-2.4-1.52-4.23-3.64-4.31l-15-.51c-3.32-.1-7.47-.75-10.15 1.76s-2.85 7.36-3.62 10.49l-3.84 15.52-15.3 62.08c-.86 3.48 5.63 5.06 6.56 1.27z"/><path d="m120.4 259.07-3.15 7.61 6.17 2.75a46.23 46.23 0 0 1 3.18-8.37c.74-1.49 2.9-6.65 4.57-7l-3.92-1.26.29.43-.54-2.92-.16.51 2.52-1.55h-.36c-4.39.2-2.7 6 1.12 5.86h.39a2.77 2.77 0 0 0 2.53-1.55 3.78 3.78 0 0 0 -.65-3.85 3.89 3.89 0 0 0 -3.92-1.26c-3.24.61-5.15 4.73-6.67 7.34a46.56 46.56 0 0 0 -4.52 10.84c-1 3.47 4.7 6.3 6.17 2.75l3.14-7.62c1.42-3.44-4.74-6.19-6.16-2.74z"/><path d="m126.24 256a131 131 0 0 1 28.06-1l-3.84-3.56 5.13 117.62 3.57-2.23a45.38 45.38 0 0 0 -20.12 1.6l4.64 3.44-4.41-115-6.28.22a58.71 58.71 0 0 1 4.39 22.91l6.56 1.27v-27.7l-6.52-.52a219.62 219.62 0 0 1 4.67 34.73c.17 3.11 6.48 4 6.53.51q.23-17.62 1.69-35.18l-6.53-.51a135.66 135.66 0 0 1 2.22 31.18l6.56 1.27a188.6 188.6 0 0 1 1.8-26.86l-6.55-1.27a632.5 632.5 0 0 0 2.94 69.1c.3 3.08 6.61 4.05 6.53.52l-1-38c-.09-3.53-6.54-5.18-6.56-1.27a675.38 675.38 0 0 0 4 77.09l5.79-1.67a14.73 14.73 0 0 1 -2.73-5.43c-.74-2.65-6.67-4.34-6.52-.51a24.38 24.38 0 0 1 -2.26 11.67l6.33 1.25a312.14 312.14 0 0 1 -1.79-44.09l-6.56-1.27c-.41 13.86-.92 27.71-3.67 41.34l6.52.52-6.18-91.67c-.21-3.12-6.66-4-6.52-.51a407 407 0 0 0 6 55.94c.52 2.92 6.52 4.17 6.52.51v-45.75l-6.52-.52q1.81 21.45 1.53 43c-.05 3.53 6.18 5.23 6.56 1.28a175.82 175.82 0 0 0 -.32-36.12l-6.49.25 8.16 36.71c.78 3.5 7.37 3.75 6.49-.24l-8.16-36.72c-.77-3.46-6.95-3.88-6.49.25a167.32 167.32 0 0 1 .25 34.59l6.56 1.28q.28-22.28-1.6-44.48c-.26-3.08-6.52-4.06-6.53-.51v45.75l6.53.51a396.14 396.14 0 0 1 -5.92-54.42l-6.53-.51 6.18 91.66c.22 3.29 5.85 3.85 6.53.51 2.75-13.62 3.26-27.48 3.67-41.34.1-3.6-6.45-5.14-6.56-1.27a323 323 0 0 0 1.86 45.6c.32 2.82 5.08 3.95 6.33 1.26a28.18 28.18 0 0 0 2.63-13.21l-6.52-.51a23.43 23.43 0 0 0 4.11 8.27c1.75 2.27 6.16 1.63 5.8-1.67a662.39 662.39 0 0 1 -3.91-75.57l-6.56-1.27 1 38 6.52.51a620 620 0 0 1 -2.88-67.59c.05-3.52-6-5.23-6.55-1.27a187.16 187.16 0 0 0 -1.82 26.88c0 3.52 6.38 5.22 6.56 1.27a142.16 142.16 0 0 0 -2.23-32.75c-.55-3-6.22-4.17-6.52-.51q-1.47 17.57-1.69 35.18l6.52.51a219.49 219.49 0 0 0 -4.67-34.72c-.62-2.83-6.53-4.24-6.53-.51v27.7c0 3.58 6.53 5.14 6.56 1.27a66.35 66.35 0 0 0 -5-25.84c-.94-2.3-6.41-3.1-6.28.23l4.41 115a3.67 3.67 0 0 0 4.65 3.44 37.86 37.86 0 0 1 16.81-1.49c1.35.19 3.65-.4 3.57-2.22l-5.16-117.64c-.1-2.23-1.7-3.41-3.84-3.57a131.13 131.13 0 0 0 -28.07 1c-4.31.62-2.69 6.41 1.13 5.86z"/><path d="m128.49 267.17 11.78.27-2.65-5.44a20.25 20.25 0 0 1 -11.43 2.28l1.08 5.66a37 37 0 0 1 14.7-1.89c4.32.35 4.65-5.4.59-5.73a45.09 45.09 0 0 0 -18 2c-3.15 1-1.9 5.37 1.07 5.66a28 28 0 0 0 16.17-3c3.28-1.7-.26-5.37-2.64-5.42l-11.77-.27c-4.38-.1-2.66 5.77 1.12 5.86z"/><path d="m27.6 369.64a505.27 505.27 0 0 1 5.25-103.64l-6.56-1.27-2.12 102.01c-.08 3.6 6.48 5.14 6.56 1.27l2.12-102.01c.08-3.53-6-5.21-6.56-1.27a512.9 512.9 0 0 0 -5.18 105.2c.19 3.58 6.7 3.84 6.49-.25z"/><path d="m328.2 245.79q.78 58.1 3.69 116.13c.09 1.78 2.33 2.76 3.8 2.8l43.31 1.39-3.8-2.8 1.63 10.33 2.69-3.05-36.52-1.59c-9.94-.44-20.64-2.06-29.77 2.82l5.36 3.13a917.12 917.12 0 0 0 -.87-128.19l-.58 2.14c3.36-2.79 5.59 2.84 6 4.91a32.13 32.13 0 0 1 .06 7.07c-.2 5.1-.24 10.19-.08 15.29.31 9.89 1.12 19.76 1.83 29.62l4.54 62.76 3.53-3-5.18-1.12 2.95 2.74c-5.44-39 3.49-79.08-7.05-117.52-.73-2.67-6.66-4.33-6.52-.51q2.13 59.76 1 119.56a3.63 3.63 0 0 0 3.84 3.56l50.8-.7-1.12-5.86-20.27.46c-5.12.12-14.15 2.05-18.3-1.66l-1.37 5.06c6.35-.91 12.73-1.57 19.14-1.85 1.63-.08 19.4.3 19.19.78-1.48 3.42 4.68 6.17 6.17 2.75 6.51-15-39.91-8.36-45.62-7.54-2.89.42-3.46 3.2-1.37 5.07 4.82 4.31 11.49 3.52 17.49 3.38l26.06-.59c4.4-.11 2.68-5.92-1.12-5.86l-50.8.7 3.84 3.57q1.15-59.79-1-119.56l-6.53-.52c10.53 38.4 1.61 78.52 7.05 117.52a3.71 3.71 0 0 0 3 2.74l5.18 1.12a2.78 2.78 0 0 0 3.54-3l-4.11-56.88c-.68-9.35-1.45-18.69-1.94-28.05-.48-9.17.44-18.39-.09-27.52-.34-5.84-3.13-11.28-9.09-13a9.31 9.31 0 0 0 -6.86.48c-3.37 1.74-2.56 4.2-2.31 7.54q2.13 29 2.34 58.05.26 32.37-1.84 64.71c-.17 2.7 3.13 4.32 5.36 3.13 8.77-4.69 21-2.2 30.58-1.79l32.68 1.43a2.66 2.66 0 0 0 2.68-3.05l-1.63-10.34c-.29-1.78-2.18-2.75-3.81-2.8l-43.27-1.4 3.81 2.81q-2.86-57.27-3.62-114.61c0-3.59-6.61-5.12-6.56-1.27z"/><path d="m324.12 244.26a9.92 9.92 0 0 0 -.9 6.18c.59 3.54 7.16 3.8 6.49-.25a4.72 4.72 0 0 1 .57-3.19c.78-1.51-.52-3.4-1.93-4a3.21 3.21 0 0 0 -4.23 1.22z"/><path d="m420.55 245q2.63 64.26 1.16 128.59l2.72-2.3-15.61.71 3.84 3.57.41-129.46-1.92 2.17a20.21 20.21 0 0 1 7.43-.41l-3-3.49q.66 62.22 1.3 124.45l2.72-2.29-6.85.22 3.84 3.57q-.78-59.67-.07-119.34l-6.52-.52q3.71 57.25 2 114.67c-.11 3.6 6.44 5.14 6.55 1.27q1.74-58.11-2-116.18c-.2-3.1-6.48-4.05-6.53-.51q-.71 59.66.08 119.34a3.63 3.63 0 0 0 3.84 3.56l6.84-.22c1.17 0 2.74-.94 2.72-2.3q-.65-62.22-1.3-124.45a3.54 3.54 0 0 0 -3-3.5 30.56 30.56 0 0 0 -10.74.52 2.5 2.5 0 0 0 -1.91 2.17l-.4 129.46a3.62 3.62 0 0 0 3.84 3.56l15.6-.71c1.2-.05 2.68-.92 2.72-2.29q1.46-64.31-1.16-128.59c-.15-3.57-6.72-5.1-6.56-1.27z"/><path d="m430.79 314.19a384.29 384.29 0 0 1 26.33-31.74q6.7-7.24 13.79-14.12 3.87-3.75 7.83-7.39c1.74-1.59 3.59-2.73 3.92-5.16a3.15 3.15 0 0 0 -1.35-2.77c-3.93-2.91-9.69-4.13-14.26-5.85-3.94-1.48-6.23 3.41-2.3 5.18 2.31 1 4.64 2 7 2.91l-.93-5.08c-1.25.7-3.91-.61-5.46-.37a8.53 8.53 0 0 0 -4.61 2.6c-4.94 4.7-9.37 10.1-14 15.11l-28.5 30.8c-2.54 2.74 2.16 5.94 4.74 4.51 9.18-5.09 15.57-13.63 22.54-21.23q5.67-6.19 11.57-12.2c1.38-1.41 12.5-12.33 12.1-12.63l-.73-4.14c-16.52 17.65-31.95 36.27-44.43 57-1.72 2.86 3.83 5.89 5.75 3.38 15.13-19.71 30.47-39.64 50-55.24 3.18-2.54-1.15-7-4.16-5a199 199 0 0 0 -50.14 48.78c-2.27 3.17 3.23 7 5.33 4a194.67 194.67 0 0 1 49-47.81l-4.16-5c-20 16-35.69 36-51.17 56.21l5.75 3.38c12.21-20.3 27.44-38.49 43.59-55.75 1.19-1.27.5-3.2-.73-4.14-3.58-2.74-7-1-10 1.73-5.29 4.8-10.28 10-15.22 15.16-9.11 9.48-17.37 22-29 28.44l4.75 4.51 26.47-28.61 12.9-13.86c1.21-1.3 2.22-2.87 3.93-3.52s1.86-.26 3.67-.13a7.17 7.17 0 0 0 4.44-1c2.21-1.23 1.05-4.34-.92-5.09-2.38-.9-4.71-1.86-7-2.91l-2.3 5.18c3.74 1.41 9.48 2.55 12.7 4.93l-1.35-2.76c-.16 1.19-5 4.54-6 5.46q-3.6 3.38-7.1 6.85-6.7 6.63-13 13.58a383.52 383.52 0 0 0 -24.51 29.77c-2.33 3.12 3.17 6.92 5.33 4z"/><path d="m434.5 286.48-9.36 12.52c-2.33 3.12 3.17 6.91 5.34 4l9.35-12.49c2.34-3.12-3.17-6.92-5.33-4z"/><path d="m431.38 283.63-2.34-.78a4.11 4.11 0 0 0 -2.52-.22 2.76 2.76 0 0 0 -1.72 1.43 3.19 3.19 0 0 0 1.93 4l2.34.78a4 4 0 0 0 2.52.21 2.68 2.68 0 0 0 1.72-1.43 3.17 3.17 0 0 0 -1.93-4z"/><path d="m424.28 313.46c9.94 6.48 17.91 15.18 26 23.76l27.36 29c2.15 2.28 7 1.37 5.55-2.4l-.79-2c-1.34-3.43-7.55-2.26-6 1.72l.8 2 5.54-2.4-28.74-30.46c-8-8.5-16-17.07-25.86-23.49-3.35-2.18-7.55 1.86-3.87 4.27z"/><path d="m427 315 42.35 51.71 4.45-3.71c-16.25-14.57-32.48-29.18-47.59-45-2.57-2.69-8-.29-5.1 3.09l31.29 36.15 5.1-3.09q-13.59-14-27.54-27.67c-1.55-1.51-5.59-2.23-5.83.91a9 9 0 0 0 3.64 8.17c2.36 1.95 6.08.11 4.93-3-1.68-4.53-3.09-8.77-2.56-13.66l-5.83.91a381.14 381.14 0 0 1 38.44 43.63l5.1-3.09c-3.71-3.64-7.52-7.16-11.48-10.54-2.6-2.23-6.9.62-4.48 3.68l8.7 11c2.37 3 7.81.37 5.1-3.08a32.82 32.82 0 0 0 -10-8.45 2.84 2.84 0 0 0 -4.15 3.45c2.39 6.39 9.8 17.55 18 15.63a7.14 7.14 0 0 0 5.29-7.55c-.28-4.15-3.63-7-7.18-8.51-3.26-1.43-6.21 2.4-3.09 4.72l9.44 7.1.56-4.93a23 23 0 0 0 -9.62 4.49l5.36 3.13a16 16 0 0 0 -1.84-9.27l-5.55 2.41a10.15 10.15 0 0 1 1.45 7.79c-.59 3.56 5.93 5.13 6.55 1.27a16.12 16.12 0 0 0 -2.89-12.15c-1.8-2.67-7.34-1-5.55 2.41a10.38 10.38 0 0 1 1.27 6.27c-.2 2.39 3.3 4.73 5.36 3.12a19.55 19.55 0 0 1 8.19-3.87c2.51-.55 2.28-3.66.57-4.93l-9.46-7.05-3.09 4.72c1.89.83 4.86 6.57-.18 4.32-1.15-.51-2.21-2.17-3-3.11a27.09 27.09 0 0 1 -4.66-7.68l-4.15 3.45a24.27 24.27 0 0 1 7.22 6.35l5.1-3.08-8.69-11-4.49 3.68q5.28 4.51 10.24 9.36c2.61 2.56 7.85.55 5.1-3.09a380.08 380.08 0 0 0 -38.44-43.62c-1.6-1.56-5.49-2.2-5.83.9-.64 5.88 1.1 11.2 3.13 16.65l4.93-3-1-2.64-5.83.91q14 13.65 27.55 27.67c2.58 2.66 8 .3 5.1-3.09l-31.29-36.15-5.1 3.09c15.5 16.19 32.15 31.19 48.83 46.14 2.56 2.29 6.95-.67 4.48-3.68l-42.34-51.71c-2.43-3-7.89-.31-5.11 3.09z"/><path d="m265.63 235.66q.92 41.45-1 82.89l6.53.51-5.33-77.31c-.21-3.1-6.39-4.05-6.52-.51-.09 2.45-9.59.24-11 .16-3-.19-5.94-.12-8.91-.15-7.9-.08-13.86-2.5-21.14-5.12-8.32-3-18.56-3.42-23.77 5-1.88 3 3.63 5.39 5.75 3.38a21.08 21.08 0 0 1 19-5.57c6.33 1.42 11.78 5.3 18.24 6.55a42 42 0 0 0 18.26-.56c1.44-.37 3.33-1.39 4.77-1.57.64-.08.23-1.76 0 1.49-.28 3.83.25 7.86.34 11.71q.51 23.43-.26 46.86c-.17 5.13.94 15.24-5.67 16.3-3.71.59-8.39-1.3-11.94-2.31-4.3-1.22-8.52-2.67-12.7-4.25-3.29-1.25-6.18 2.26-3.08 4.72a50.12 50.12 0 0 0 19.07 9.4 2.76 2.76 0 0 0 2.22-5 50.93 50.93 0 0 0 -52.82-3.17l5.36 3.13 2-78.09c.1-3.58-6.4-5.16-6.55-1.27a160.25 160.25 0 0 0 2.61 36.26c.55 2.91 6.45 4.19 6.53.51a313.27 313.27 0 0 1 3.77-42.48l-6.52-.52a433.66 433.66 0 0 1 .81 45.46c-.12 3.57 6.28 5.19 6.56 1.27q1.69-23.62 5.44-47l-6.52-.51a263 263 0 0 1 .83 45.51l6.56 1.27a211.33 211.33 0 0 1 5.45-42.46l-6.56-1.27a301.09 301.09 0 0 0 1.8 43.3c.35 3.11 6.12 4 6.52.51q2.19-19.46 5.78-38.71l-6.52-.51q1.88 18.51 2 37.12c0 3.49 6.13 5.27 6.56 1.27q1.57-14.62 4.5-29l-6.52-.51a95.3 95.3 0 0 1 1.34 32.26c-.46 3.59 6 5.15 6.56 1.27l4.16-31.37-6.52-.55 1.62 25.13 6.49-.25a117 117 0 0 1 1.64-30.06l-6.53-.52a254.88 254.88 0 0 1 5.26 39.19c.18 3.12 6.63 4 6.52.51a187.4 187.4 0 0 1 3.2-40.6l-6.52-.51a253.34 253.34 0 0 1 -.93 36.23l6.56 1.28a270.87 270.87 0 0 1 3-35.41l-6.53-.52 2.09 33.89c.19 3.17 6.1 4 6.52.51l3-24.58-6.52-.52q1 18.35.53 36.71l6.56 1.27v-45.42c0-3.57-6.48-5.17-6.56-1.27a34.68 34.68 0 0 0 1.21 10.13l5.18-2.25a79.9 79.9 0 0 0 -32-11.3c-3.55-.44-5.12 4.28-1.45 5.45a190.66 190.66 0 0 0 24.93 6.17c1.23.22 2.87-.19 3.37-1.49 1.46-3.75-.24-6.74-3.62-8.56a3.34 3.34 0 0 0 -3.82.58l-10.38 12.85 5.92 1.89a16.39 16.39 0 0 1 4.66-13.6c2.47-2.6-2.2-6.24-4.75-4.51a10.88 10.88 0 0 1 -11.31 1.1c-3.17-1.46-6.44 2.73-3.08 4.72 8.57 5.08 11.21 15.77 13.44 24.82a136.52 136.52 0 0 1 3.87 33.62l6.52.52a77.05 77.05 0 0 1 .25-21.18l-6.56-1.27a170.76 170.76 0 0 0 1.57 35.07c.45 3.08 6.05 4.07 6.52.51a140.85 140.85 0 0 1 3.92-19.5l-6.32-1.25a52.17 52.17 0 0 1 1.38 15c-.2 3.65 5.62 5 6.56 1.27a67.66 67.66 0 0 0 .76-29.09c-.46-2.45-5.38-4.34-6.33-1.25a92 92 0 0 0 -4 22.26l6.53.51a121.75 121.75 0 0 0 -5.47-25.36c-.82-2.5-6.55-4.47-6.52-.51a327.53 327.53 0 0 1 -1.59 34.59l6.53.51a131.42 131.42 0 0 1 -4.63-31c-.09-3.48-6.38-5.25-6.56-1.27a267.8 267.8 0 0 0 .49 31.42c.23 3.12 6.69 4 6.53.52l-1.59-34.33c-.16-3.45-6.47-5.25-6.56-1.27l-.69 30.79 6.52.51-3.71-28.88c-.39-3-6.57-4.09-6.53-.51l.45 35.23 6.52.52-4-37.26c-.33-3.08-6.26-4.07-6.52-.51q-1.11 14.73-1.42 29.51l6.52.51-3.19-24.94c-.46-3.58-6.86-3.83-6.49.25a218.38 218.38 0 0 1 .68 28.6l6.53.51-4.23-36.71c-.35-3-6.45-4.09-6.53-.51l-.57 28.15 6.53.51-3-22.16c-.48-3.58-6.85-3.84-6.49.24a161 161 0 0 1 .13 26.8l6.52.51-3.03-32.84c-.29-3.07-6.58-4-6.52-.51q.27 16.8-1 33.55l6.52.51-3.34-29.37c-.35-3-6.38-4.09-6.52-.51l-1.19 29.35 6.53.52-3-23.87c-.39-3.06-6.2-4.08-6.53-.51l-2.28 25.34 6.52.51a127 127 0 0 1 .74-37.24l-6.56-1.27-3.4 34 6.52.52a170.48 170.48 0 0 1 -.46-25c.19-3.58-5.88-5.16-6.56-1.27l-4 22.54 6.53.52a73.31 73.31 0 0 1 -.84-25.58l-6.52-.52a69.4 69.4 0 0 1 -.85 18.54l6.52.51a28.92 28.92 0 0 1 2.16-14.66c1.22-2.72 1.28-1.52 2.79.6s3 4.28 4.51 6.41 5.43 1.85 5.83-.9a64.21 64.21 0 0 1 4.55-16.21l-6.32-1.25a36.55 36.55 0 0 1 1.76 11.67l6.52.51a54.7 54.7 0 0 1 .21-18.8l-6.28.23c4.65 9.45-5.61 17.42-10.81 24a57.42 57.42 0 0 0 -10.41 21.38c-.79 3 4.15 4.49 5.94 2.65a66.46 66.46 0 0 1 18-13.15c3.63-1.83-1-6.59-4.16-5a71.19 71.19 0 0 0 -19.15 14.11l5.95 2.65c2.79-10.65 9-18 15.82-26.27 5.2-6.29 8.71-14.21 4.83-22.08-1.22-2.5-5.69-3-6.27.22a59.7 59.7 0 0 0 -.14 20.31c.48 3 6.47 4.16 6.53.52a40.94 40.94 0 0 0 -1.84-13.19c-.75-2.41-5-4.35-6.32-1.25a70.65 70.65 0 0 0 -5 17.69l5.83-.91c-3.15-4.48-8.23-15.3-15.34-10.66-6.19 4-6.27 15.25-5.66 21.63.31 3.22 5.92 3.92 6.53.51a75.25 75.25 0 0 0 .78-20.05c-.29-3.17-6-4-6.53-.51a78.05 78.05 0 0 0 .91 27.09c.64 3.05 5.89 4.09 6.52.51l4-22.54-6.56-1.27a181.34 181.34 0 0 0 .53 26.47c.29 3.12 6.17 4 6.53.51l3.4-34c.36-3.59-5.92-5.13-6.56-1.27a132.1 132.1 0 0 0 -.66 38.75c.39 3.07 6.2 4.09 6.52.52l2.28-25.34-6.52-.51 3 23.86c.38 3 6.38 4.11 6.52.51l1.19-29.35-6.53-.51 3.34 29.37c.35 3.06 6.27 4.08 6.53.51q1.22-16.75.95-33.55l-6.53-.51 3.08 32.79c.29 3.09 6.25 4.05 6.52.51a169.38 169.38 0 0 0 -.19-28.31l-6.49.24 3 22.17c.4 3 6.45 4.11 6.52.51l.57-28.15-6.52-.51 4.23 36.7c.35 3 6.37 4.1 6.52.52a231.17 231.17 0 0 0 -.75-30.12l-6.49.25 3.19 24.93c.39 3 6.45 4.11 6.53.52q.32-14.77 1.42-29.51l-6.53-.52 4 37.26c.33 3.06 6.57 4.07 6.52.52l-.44-35.24-6.52-.51 3.71 28.94c.39 3 6.45 4.11 6.53.52l.69-30.79-6.56-1.27 1.59 34.33 6.52.51a253 253 0 0 1 -.42-29.91l-6.56-1.27a137.8 137.8 0 0 0 4.7 32.49c.75 2.78 6.15 4.32 6.52.52a327.53 327.53 0 0 0 1.53-34.55l-6.53-.51a121.8 121.8 0 0 1 5.45 25.31c.33 3.07 6.34 4.08 6.52.52a85.72 85.72 0 0 1 3.6-20.78l-6.32-1.22a63.51 63.51 0 0 1 -.83 27.57l6.56 1.27a58.11 58.11 0 0 0 -1.45-16.5c-.55-2.32-5.44-4.46-6.33-1.25a150.16 150.16 0 0 0 -4.32 21l6.52.52a163.12 163.12 0 0 1 -1.49-33.61c.21-3.58-6-5.17-6.56-1.27a82.11 82.11 0 0 0 -.17 22.69c.38 3 6.49 4.1 6.52.51a141.29 141.29 0 0 0 -4.89-38.76c-2.63-9.56-6.12-19.88-15.12-25.21l-3.08 4.72a17.76 17.76 0 0 0 17.77-1.29l-4.75-4.51a21.44 21.44 0 0 0 -5.81 17.88c.28 2.42 4.29 3.89 5.91 1.89l10.37-12.85-3.82.57-.23.64 3.37-1.49a176.22 176.22 0 0 1 -23.2-5.63l-1.45 5.45a71.69 71.69 0 0 1 28.76 9.87c1.77 1.08 6.05.91 5.18-2.25a29.14 29.14 0 0 1 -1.14-8.62l-6.56-1.27v45.42c0 3.55 6.46 5.17 6.56 1.27q.47-19.12-.6-38.22c-.18-3.17-6.1-4-6.53-.51l-3 24.58 6.53.52-2.09-33.89c-.2-3.2-6-4-6.52-.51a270.87 270.87 0 0 0 -3 35.4c-.07 3.54 6.18 5.23 6.56 1.28a261.55 261.55 0 0 0 .85-37.76c-.15-3.27-5.89-3.86-6.52-.51a187.4 187.4 0 0 0 -3.2 40.6l6.53.51a254.75 254.75 0 0 0 -5.26-39.18c-.65-3-5.87-4.09-6.52-.51a122.87 122.87 0 0 0 -1.57 31.58c.27 3.59 6.75 3.83 6.49-.25l-1.63-25.12c-.2-3.18-6.06-4-6.52-.52l-4.16 31.37 6.56 1.27a100.12 100.12 0 0 0 -1.41-33.78c-.66-3.09-5.81-4-6.53-.51q-2.93 14.41-4.5 29l6.56 1.27q-.17-19.36-2.11-38.64c-.33-3.23-5.89-3.91-6.53-.51q-3.6 19.25-5.78 38.71l6.53.52a288.83 288.83 0 0 1 -1.67-41.76c.12-3.62-5.66-5.11-6.56-1.27a211.33 211.33 0 0 0 -5.44 42.43c-.09 3.56 6.29 5.19 6.56 1.27a272.62 272.62 0 0 0 -.9-47c-.34-3.18-6-4-6.53-.51q-3.75 23.4-5.44 47l6.56 1.27a446.09 446.09 0 0 0 -.88-47c-.23-3.21-6-3.94-6.53-.51a313.27 313.27 0 0 0 -3.84 42.52l6.52.52a153.93 153.93 0 0 1 -2.52-34.75l-6.55-1.27-2 78.09a3.67 3.67 0 0 0 5.36 3.13 43.39 43.39 0 0 1 44.8 2.44l2.22-5a41.61 41.61 0 0 1 -15.79-7.94l-3.04 4.73c8.23 3.11 18.13 7.34 27 7.55 7.09.17 10.59-5.1 11.6-11.52 1.38-8.82.84-18.33 1-27.25q.19-15.62-.19-31.24c-.11-4.64.36-9.86-.48-14.42-.48-2.64-1.87-4.65-4.77-4.84s-6.19 2-9.1 2.71a34.44 34.44 0 0 1 -14.95.43c-8.2-1.58-14.94-7-23.51-7.15a27.74 27.74 0 0 0 -19.62 7.88l5.75 3.38c3.64-5.88 11.69-4 16.92-1.94 5.87 2.29 11.25 4.55 17.6 5 6.94.49 13.57.18 20.45 1.39 4.53.79 10-.27 10.2-5.81l-6.52-.52 5.32 77.32c.21 3.1 6.36 4.05 6.52.51q1.93-41.42 1-82.89c-.08-3.58-6.64-5.11-6.56-1.27z"/><path d="m250.56 280.89-1.57 7.6 6.52.51-.67-4.23c-.49-3.1-6-4.06-6.52-.52a29.25 29.25 0 0 1 -1.93 6.93c-1.46 3.48 4.36 6 6.16 2.74a26.72 26.72 0 0 0 3-8.63c.63-3.56-5.88-5.12-6.56-1.27a22.19 22.19 0 0 1 -2.61 7.16l6.16 2.74a35.06 35.06 0 0 0 2.33-8.4l-6.53-.51.67 4.24c.51 3.2 5.82 3.94 6.53.51l1.57-7.59c.73-3.53-5.77-5.1-6.56-1.28z"/></g><path d="m251 142.47a12.9 12.9 0 0 1 1.9-6.86c.94-1.35 3.41-3.46 5.27-2.68 1.11.47 1 0 .35 1.14-.49.85-2.26 1.64-3.11 2.06a15.42 15.42 0 0 1 -7.35 1.45l3.22 4.94a16.49 16.49 0 0 1 9.53-6.84c4.12-1.11.8-6.56-2.73-5.61a21.34 21.34 0 0 0 -12.13 8.43c-1.68 2.43.67 4.88 3.23 4.94a20.77 20.77 0 0 0 13.47-4.32c3.94-3.12 4-7.81-.43-10.57a11.16 11.16 0 0 0 -12.31.72c-3.75 2.76-5.25 7.45-5.47 11.93-.18 3.61 6.36 5.15 6.56 1.27z" fill="#fff"/><path d="m210.64 136.63c-.49-2.13 2-1.94 3-1.07a14.34 14.34 0 0 1 3 4.16 20.84 20.84 0 0 0 5.62 6.85c3.26 2.35 7.36-1.56 3.87-4.27a46.11 46.11 0 0 0 -15.94-7.92c-3.61-1-4.92 4.34-1.44 5.46a42.78 42.78 0 0 1 12.72 6.5c3.23 2.41 7.39-1.64 3.86-4.27a48.68 48.68 0 0 0 -14.28-7.41l-1.44 5.45a36.5 36.5 0 0 1 12.65 6.46l3.87-4.27c-5-3.57-5.51-10.59-11.87-12.87-4.88-1.75-11.45 1.66-10.13 7.44.79 3.49 7.4 3.74 6.49-.24z" fill="#fff"/><path d="m241.4 180.55a132.54 132.54 0 0 1 15.69 26.57 125.63 125.63 0 0 1 5.63 15.37c1.08 3.68.1 4.31-3.59 5.61a37.87 37.87 0 0 1 -22.73.83c-5-1.38-9.59-3.91-14.63-5.14a34.07 34.07 0 0 0 -25.35 4l5.33 2.37c-.52-8.38 5.77-18.71 9.58-25.91a161.58 161.58 0 0 1 14.34-22.4l-5.22-.47c1.5 1.78-1.56 7.68-2.22 9.49q-2 5.42-4.38 10.67a155.23 155.23 0 0 1 -11.16 20.31l5.91 1.89c-2.42-10.12 8.57-21.44 15.28-27.9 2.61-2.51 6.17-4.81 6.79-8.63.53-3.33-1.39-6-4.3-7.36l-1.45 5.46a51.78 51.78 0 0 0 16.85-.1c4.12-.67.89-5.58-1.93-5.73a101.26 101.26 0 0 0 -16.61.47l1.92 5.74a23.67 23.67 0 0 1 14 1l-1.52-4.61c-3.56 3.41-1.12 8.3.23 12.22l6.88 20c1 3 6.82 2.67 6.24-1l-3.31-20.76-6.49.24 8.74 30.22 6.49-.25a207.05 207.05 0 0 1 -7.19-31l-6.24 1q6.71 16.58 14 32.91l1.63-3.67c-15.8 3.07-31.82 1-47.6-1.14l.26 5.79a126.53 126.53 0 0 1 38.45 7.93c1.4.53 3.6.49 4.24-1.21 2.1-5.61-2.83-13.25-4.82-18.4l-8.86-23c-.91-2.38-6.29-3.06-6.27.23a192 192 0 0 0 2.77 31.57l6.49-.25-6.9-34-6.49.24a195.13 195.13 0 0 1 7.57 31l6.24-1-10.24-27.83c-.88-2.4-6.33-3-6.27.23l.53 30.36 6.52.51a95.37 95.37 0 0 1 -2.83-26.77l-6.55-1.27a107.45 107.45 0 0 1 -1.94 25l6.52.52-2-23.27c-.27-3.09-6.64-4-6.53-.51a60.71 60.71 0 0 1 -3.16 21.72l6.33 1.25a51.78 51.78 0 0 1 2.2-17.69l-6.36-2-2 8.05c-.51 2-1 7.29-3 8.4-2.2 1.23-5-.6-6 2.9a2.86 2.86 0 0 0 .53 2.92c4.57 4.49 8.65.39 12.36-3.06.54-.49 7.34-7.19 7.09-7.27 1.28.43 3.62 10.75 4.05 12 .85 2.55 6.34 4.48 6.52.52l.45-9.3c.17-3.64-5.64-5.06-6.56-1.27a27.18 27.18 0 0 0 -.45 10.55c.43 3 4.82 3.67 6.33 1.25-.21.33 5.32 1.38 5.82 1.31a6.47 6.47 0 0 0 4.15-2.25c2.67-3.27 1.26-7.52 0-11.05a197.89 197.89 0 0 0 -14.48-31.57l-3.29 3.72a58.54 58.54 0 0 1 10.4 2.73c1.37.51 3.65.51 4.24-1.21l.35-.6-5.33-2.37a130 130 0 0 0 10.64 27.66c1.33 2.54 7.3 2.81 6.23-1l-2.78-9.89-6.24 1 8 21.51c.92 2.48 6.13 3 6.28-.22a37.55 37.55 0 0 0 -6.66-23.24c-1.45-2.15-6.84-1.59-5.8 1.67 1.2 3.73 2.58 8.27 2.17 12.24-.21 2.05.11 2.14-1.71 1.07a23.84 23.84 0 0 1 -4.13-3.78c-4.11-4-8.13-8.76-13.48-11.23-4.31-2-8.86-1.52-11.82 2.4-3.77 5-6.24 11.51-9.13 17l6.08.51c-8.53-16.25 11.63-27.55 23.45-33.17 2.53-1.2.7-4.18-.93-5.08a20.53 20.53 0 0 0 -17.13-1.36l2.73 5.6a38.8 38.8 0 0 1 15.85-2.84c4.39.13 2.66-5.74-1.12-5.85a42.79 42.79 0 0 0 -17.46 3.09c-3.95 1.59-.74 6.86 2.73 5.6a13.72 13.72 0 0 1 12.1.94l-.93-5.08c-8.58 4.08-17.76 8.54-23.21 16.68-4.64 6.92-6 15.66-2.07 23.19 1.15 2.2 4.78 3 6.08.51l5.36-10.25c1.84-3.5 3.05-8.39 8-6.22 6 2.62 10.08 9.58 15.15 13.57 3.12 2.45 7.89 4.73 10.83.67 3.39-4.69.62-13.68-.93-18.5l-5.79 1.67a30.7 30.7 0 0 1 5.2 18.88l6.35-.15-8-21.51c-1.08-2.91-7.25-2.62-6.24 1l2.79 9.89 6.24-1a123 123 0 0 1 -10.14-26.18c-.56-2.15-3.29-3.65-5.32-2.37a4.39 4.39 0 0 0 -2.36 2.83l4.24-1.22a67.85 67.85 0 0 0 -12.21-3.29c-2.08-.35-4.57 1.45-3.29 3.73a203.49 203.49 0 0 1 12.61 26.56c.91 2.33 2.72 5.52 2.63 8-.13 3.31-1.92 2-4.25 1.6a6 6 0 0 0 -6.69 2.9l6.33 1.26a23.32 23.32 0 0 1 .52-9l-6.56-1.27-.44 9.3 6.52.51c-1.38-4.15-2.56-8.45-4.17-12.52-.89-2.25-2.2-4.32-4.69-5-2.76-.76-4.91.55-6.92 2.3-1.79 1.56-3.49 3.24-5.22 4.86-1.3 1.21-4.44 5.12-6.31 5.1l3.11 1.39-.68-.68.53 2.92c-.13.44 3.07.05 3.73-.19a5.38 5.38 0 0 0 3.26-3.28c2.27-5.26 3-11.79 4.41-17.36.77-3.08-5.41-5.19-6.37-2a60 60 0 0 0 -2.5 20.63c.13 2.71 5.36 4.07 6.33 1.25a64.9 64.9 0 0 0 3.55-23.2l-6.52-.51 2 23.26c.28 3.26 5.86 3.88 6.52.51a106.9 106.9 0 0 0 1.94-25c-.13-3.45-6.41-5.26-6.55-1.27a100.59 100.59 0 0 0 2.9 28.29c.68 2.73 6.59 4.29 6.52.51l-.53-30.36-6.28.22 10.24 27.84c1.09 3 6.82 2.69 6.23-1a194.17 194.17 0 0 0 -7.56-31c-1.06-3.19-7.34-3.95-6.49.24l6.9 34c.71 3.5 7.2 3.81 6.49-.25a182.36 182.36 0 0 1 -2.7-30.05l-6.28.22 7.09 18.41 3.19 8.29c.88 2.28 4.07 8 3.22 10.25l4.24-1.22a137.47 137.47 0 0 0 -41.88-8.61c-3.89-.19-3.09 5.34.27 5.79 17 2.3 33.95 4.32 50.92 1a2.59 2.59 0 0 0 1.63-3.67q-7.33-16.32-14-32.91c-1.18-2.91-6.8-2.72-6.24 1a207.63 207.63 0 0 0 7.19 31c1.05 3.33 7.63 3.7 6.49-.25l-8.74-30.26c-.95-3.31-7.15-3.94-6.49.24l3.31 20.76 6.24-1-4.38-12.7c-.92-2.68-5.56-11.65-3.38-13.73 1.52-1.46.1-4-1.52-4.6a32.24 32.24 0 0 0 -19-1.4c-3.78.84-1.26 6.09 1.93 5.73a101.38 101.38 0 0 1 16.62-.47l-1.98-5.64a41.51 41.51 0 0 1 -13.53 0c-3.76-.6-4.76 3.91-1.45 5.45 1.19.56-7.14 8.39-7.83 9.12a76.93 76.93 0 0 0 -7.8 9.56c-4.2 6-8.14 12.68-6.32 20.27.5 2.09 4.37 4.26 5.91 1.89a161 161 0 0 0 13.77-25.65c2.41-5.73 8.58-16.22 3.77-21.93-1.13-1.33-3.95-2.14-5.22-.47a171.56 171.56 0 0 0 -16 25.25c-4.22 8.21-9.67 17.86-9.08 27.34.15 2.35 3.55 3.41 5.32 2.37a27.44 27.44 0 0 1 17.48-3.88c5.94.78 11.26 3.86 17 5.52a44.36 44.36 0 0 0 30.62-2.25c4.38-2 5-4.47 3.8-9.11a122.27 122.27 0 0 0 -5.35-15.31 139.37 139.37 0 0 0 -17.6-30.3c-2.32-3.06-7.75-.41-5.1 3.09z" fill="#bae3f9"/><path d="m212 171.77a2.58 2.58 0 0 1 3.17-.54c.93.15 1.86.28 2.8.4q2.81.36 5.62.62c3.73.33 7.46.54 11.21.57s7.54-.1 11.3-.38c4.13-.31 8.3-1.17 12.11.93l1.44-5.45a126.4 126.4 0 0 0 -23.34-.56q-5.08.39-10.12 1.2c-3 .47-9.57.66-11.94 2.49s-.14 1.7 1.9 1.5c2.19-.22 4.37-.42 6.56-.61 3.74-.32 7.5-.59 11.26-.73a105.81 105.81 0 0 1 25.18 1.8c4.3.87 4.54-4.92.58-5.73-10.41-2.12-21-2.34-31.58-1.69-5.28.33-10.69.57-15.92 1.37-2.61.4-5.86 1.23-6.31 4.35-.39 2.77 2.1 5.21 4.56 5.89 4 1.12 8.93-1.23 12.9-2a114.94 114.94 0 0 1 35.69-1.52c3.86.43 4.62-3.69 1.44-5.45-4.91-2.71-10.15-2-15.53-1.61a128.44 128.44 0 0 1 -21.75-.14c-4.38-.41-11.23-2.82-15.34-.2a5.49 5.49 0 0 0 -1 8.62c2.67 2.64 8.22 0 5.11-3.09z" fill="#bae3f9"/><path d="m265.7 323.86a199 199 0 0 1 1.89 20.53c.11 2.91.15 5.83.12 8.74 0 2.56.48 6.42-.35 8.89-1.36 4-4.33 3.06-7.49 2.47a60.21 60.21 0 0 0 -7.81-.88c-6.2-.34-12.45-.07-18.65.18s-12.5.66-18.74 1.2c-3.15.27-7.23 1.47-10.14.08s-2.79-4.15-3.13-7.16a85.6 85.6 0 0 1 -.41-18.59c.8-7.46 5.1-9.73 12-10.89l-3.44-5.3a18.89 18.89 0 0 1 -9.77 3.28l1.92 5.73a62.49 62.49 0 0 1 34.33.33l.58-5.73-17.34-4.44-.59 5.72c9.42 1.64 18.89 3.77 28.4 4.72 7.18.72 14.43.26 20.4-4.17l-5.36-3.13-1.12 36.38 6.52.51a212.35 212.35 0 0 0 -2.88-25.14c-.54-3-6.07-4.11-6.53-.51q-1.43 11.35-2 22.79l6.52.51q-.94-12.27-.68-24.55c.08-3.55-6.25-5.21-6.56-1.28a93 93 0 0 0 2.11 28.22l3.54-3a80.06 80.06 0 0 0 -28.68-1.83 87.72 87.72 0 0 0 -13.5 2.81c-5.28 1.5-10.91 3.66-16.39 1.87l2.13 3.22a111.18 111.18 0 0 1 3.13-31.44l-6.56-1.27a80.89 80.89 0 0 0 1.42 29.94c.66 2.79 6.4 4.28 6.53.51l1-31-6.52-.52 3.76 30.19c.45 3.6 6.73 3.81 6.49-.25-.59-10.07-1.05-20.09-.07-30.15l-6.52-.51 2.89 30.89c.33 3.6 6.74 3.82 6.48-.24-.64-10.43-.75-20.86-.39-31.29l-6.53-.52 5.61 30.66c.53 2.91 6.61 4.16 6.52.51l-.71-30.25-6.52-.52 3.3 28.31c.35 3.05 6.61 4.06 6.52.51q-.36-13.39.36-26.78l-6.53-.51 4.88 27.85c.62 3.55 6.8 3.84 6.48-.25q-1.16-15.12-1.26-30.29l-6.53-.51a200.71 200.71 0 0 1 4.58 30.85c.22 3.12 6.65 4 6.52.51a169.73 169.73 0 0 1 1.07-26.08l-6.52-.51q1.89 14.33 2.91 28.72c.22 3.11 6.62 4 6.52.52q-.4-14.76.5-29.47l-6.53-.51 4.31 26c.59 3.58 6.74 3.83 6.48-.24a122.88 122.88 0 0 1 .74-22.85l-6.52-.51a129.22 129.22 0 0 1 3.76 25.65l6.53.51a221.64 221.64 0 0 1 -.75-24.58l-6.53-.51a58.71 58.71 0 0 1 3.1 17.19l6.52.52a46.37 46.37 0 0 1 1.48-15.91l-6.33-1.25a193 193 0 0 1 3.04 21.44c.27 3.1 6.65 4 6.52.52a99.8 99.8 0 0 1 1-18.52l-6.53-.51a69.21 69.21 0 0 1 1.33 18.05l6.52.51a57 57 0 0 1 1.24-16.78l-5.83.91a24.83 24.83 0 0 1 2.91 6.08c.7 2.16 5.33 4.59 6.32 1.25a64.24 64.24 0 0 0 2.81-19.94c-.06-2.83-3.76-4.86-5.95-2.64a12.46 12.46 0 0 1 -16 1.82l-3.87 4.25a34 34 0 0 0 19.55 5.36c4.09-.14 2.87-5-.27-5.79l-6.76-1.7.26 5.8c2.17.1 3.41 1.27 4.52 3l2.84-4.41c-2.86-.27-5.33.3-7.23 2.66-2.49 3.09-1.77 7.35-3.13 10.86a15.83 15.83 0 0 1 -18.91 9.22l.27 5.79 17.42 1-1.12-5.86a15.76 15.76 0 0 0 -7.17 2.31c-2.64 1.62-.51 4.84 1.78 5.36a17.78 17.78 0 0 0 21.55-14.77c.48-3.59-5.86-5.11-6.56-1.27a22.59 22.59 0 0 1 -2.35 6.69l5-.76.37.69c.54-3.57-6-5.13-6.56-1.27a4.57 4.57 0 0 0 2.33 4.85c1.66 1 4 1.24 5-.76a27.46 27.46 0 0 0 2.75-8.17l-6.56-1.27a12.07 12.07 0 0 1 -14.4 10.32l1.79 5.35a6.88 6.88 0 0 1 4.13-1.44c4.52-.41 2.55-5.66-1.12-5.86l-17.42-1c-4.2-.23-2.67 4.94.27 5.79a21.53 21.53 0 0 0 19-3.72 21.08 21.08 0 0 0 5.87-6.83c1-1.82 2.51-12.43 4.39-12.25 2.81.27 4.45-2 2.84-4.41-2.49-3.8-6.29-5.52-10.74-5.73-4.1-.2-2.79 5 .27 5.79l6.76 1.69-.26-5.79a25.33 25.33 0 0 1 -14.58-3.72c-3.33-2.07-7.54 1.72-3.86 4.26 7.89 5.45 18.38 4.86 25.2-2.06l-5.95-2.65a59.81 59.81 0 0 1 -2.38 18.43l6.33 1.25a36 36 0 0 0 -4.3-8.92c-1.47-2.24-5.27-1.68-5.83.91a61.79 61.79 0 0 0 -1.16 18.3c.24 3.09 6.31 4.05 6.52.51a75.21 75.21 0 0 0 -1.4-19.57c-.62-3-6-4.13-6.52-.51a99.75 99.75 0 0 0 -1 18.52l6.53.51a193.49 193.49 0 0 0 -3.09-21.42c-.48-2.38-5.48-4.41-6.33-1.25a54.26 54.26 0 0 0 -1.72 18.9c.25 3.1 6.61 4 6.52.51a63.17 63.17 0 0 0 -3.22-18.73c-.84-2.51-6.43-4.49-6.52-.51a236.57 236.57 0 0 0 .82 26.09c.27 3.11 6.67 4 6.52.52a136 136 0 0 0 -3.83-27.16c-.72-2.88-6.07-4.25-6.53-.52a130.47 130.47 0 0 0 -.66 24.36l6.48-.24-4.3-26c-.49-3-6.3-4.15-6.52-.51q-.9 14.73-.5 29.47l6.53.51q-1-14.42-2.92-28.72c-.4-3.09-6.1-4.06-6.52-.52a169.73 169.73 0 0 0 -1 26.09l6.53.52a200.71 200.71 0 0 0 -4.58-30.85c-.64-2.8-6.55-4.26-6.52-.52q.11 15.93 1.34 31.81l6.48-.25-4.87-27.85c-.52-3-6.33-4.17-6.52-.51q-.72 13.38-.36 26.78l6.52.51-3.3-28.3c-.35-3.05-6.6-4.07-6.52-.51l.71 30.25 6.52.52-5.6-30.66c-.53-2.92-6.39-4.19-6.52-.51q-.57 16.41.47 32.8l6.48-.24-2.89-30.9c-.29-3.11-6.18-4-6.52-.51-1 10.55-.48 21.11.14 31.67l6.49-.25-3.76-30.18c-.38-3-6.41-4.1-6.52-.51l-1 31 6.52.51a76.16 76.16 0 0 1 -1.38-28.42c.51-3.65-5.64-5-6.56-1.27a111.55 111.55 0 0 0 -3.17 31.46 3.44 3.44 0 0 0 2.12 3.23c9.38 3.07 17.63-.79 26.76-2.85a73.33 73.33 0 0 1 33.53.54c1.79.44 4-.95 3.54-3a87.2 87.2 0 0 1 -2-26.7l-6.56-1.28q-.27 13.07.75 26.08c.24 3.09 6.34 4 6.53.51q.6-11.43 2-22.79l-6.52-.52a208.24 208.24 0 0 1 2.85 25.16c.17 3.11 6.42 4 6.53.52l1.11-36.38c.07-2.4-3.2-4.73-5.36-3.12-6 4.45-13.28 3.92-20.32 2.81-7.93-1.24-15.83-2.73-23.73-4.1-4.39-.76-4.44 4.74-.59 5.72l17.36 4.45c4.3 1.1 4.37-4.63.58-5.73a69.06 69.06 0 0 0 -37.64-.21c-3.81 1.05-1.22 5.91 1.93 5.74a25.44 25.44 0 0 0 12.81-4.15c3.41-2.23-.65-5.77-3.45-5.3-6.57 1.11-12.48 3.36-14.76 10.15s-1.44 14.66-.9 21.55c.45 5.7.82 13.26 6.75 16.14 3 1.46 6.37.95 9.56.64 4.6-.44 9.19-.83 13.79-1.13a257.2 257.2 0 0 1 26.77-.78c4.21.17 8.13 1.18 12.27 1.75 2.6.37 5.24.12 7.3-1.65 4.92-4.24 3.35-14.33 3.25-19.94a212.21 212.21 0 0 0 -2.06-25.93c-.5-3.56-7.06-3.82-6.49.24z" fill="#bae3f9"/><path d="m281.88 226.45a1.24 1.24 0 0 0 0-.33 77.77 77.77 0 0 0 -3.62-15.24c-4.35-12.18-14.23-22-20.71-33 2.13.09 4.4.13 6.21-.71 3.85-1.79 3.84-7.79 3-11.37-1-4.33-4.1-5.78-8.23-6.21-16.68-1.72-33.91-1-50.57.65a1.71 1.71 0 0 0 -.89.32 1.84 1.84 0 0 0 -1.5.14c-2.83 2.07-2.06 10.48-1.1 13.49 1.46 4.52 7 3.78 11 3.63-6.89 10.7-14.35 21.25-18.37 33.43a106 106 0 0 0 -4.72 24.87 1.15 1.15 0 0 0 0 .71c-.61 8.14-.62 16.36-.61 24.58 0 18.61 0 37.21.12 55.82.08 9.37.21 18.74.45 28.11.17 6.78-1.2 15.92 2.32 22 2.76 4.8 7.67 6.83 13 6.89 8 .1 15.94-.06 23.9-.19q12.45-.21 24.88-.94c5.93-.36 12.65 0 18.46-1.33 6.12-1.44 5.64-7.4 5.81-12.65q.47-14.79.85-29.6c.11-4.44.19-8.89.29-13.33l.16-.09c1.1-.65.72-1.77-.1-2.4.31-14.47.59-28.94.76-43.41.07-14.14 1.19-29.4-.79-43.84zm-2.63 24.66q-.19 31.58-.95 63.16c-6.7 4-13.54 8.76-21 11-9.13 2.69-17.43.78-25.94-2.77-12-5-24.46-5.32-36 .68 0-1.77 0-3.53-.06-5.29-.14-16.79-.11-33.58-.11-50.37 0-9.9-.2-19.85.53-29.69a36.24 36.24 0 0 1 24.51-4.22c7.43 1.41 13.86 5.82 21.37 7 14.17 2.26 25.52-4.73 37.11-11.64a220.91 220.91 0 0 1 .54 22.14zm-71.76-80a33.78 33.78 0 0 1 0-7.13 1.15 1.15 0 0 0 .25-.12l.25-.16a1.34 1.34 0 0 0 .36-.35h.18a299.35 299.35 0 0 1 31.11-1.43c5.2 0 10.39.2 15.57.53 3.6.22 7.47.17 8.27 4.76.51 3 .32 6.48-3.09 7.4-2.06.57-5 0-7.12 0h-39.39c-3.37.04-5.58.29-6.39-3.52zm-7.56 42.83c4.14-13.26 12.34-24.56 19.73-36.15h34.2a1.64 1.64 0 0 0 .21.61c5.46 9.46 12.63 17.83 18 27.33a54 54 0 0 1 6.14 19.56c-6.91 4.13-13.95 9.09-21.69 11.37-9.13 2.69-17.43.78-25.94-2.77-11.5-4.81-23.45-5.28-34.59 0a100.7 100.7 0 0 1 3.94-19.97zm77.17 144.51c-.11 3.33.63 9-3.28 10.21-2.67.82-5.8.64-8.56.74-7.11.25-14.21.88-21.32 1.16-6.89.27-13.79.39-20.69.45-3.44 0-6.88 0-10.32.06-4.25 0-9.23.8-12.82-2-4.17-3.23-3.93-8.2-4.09-12.94q-.21-6.47-.36-12.94c-.13-5.43-.21-10.86-.28-16.29a1.3 1.3 0 0 0 .45-.17 36.35 36.35 0 0 1 25.07-4.53c7.43 1.42 13.87 5.83 21.37 7 13.73 2.22 24.73-4.2 35.93-10.9q-.46 20.07-1.1 40.15z" fill="#3e3a39"/><path d="m226.47 149.76a1.64 1.64 0 0 0 2.18-.7 1.28 1.28 0 0 0 1.48-1.21c.82-11.28-10.49-30.41-24.07-23.92-5.71 2.74-6.68 9.15-3 14 4.94 6.75 16.06 8.94 23.41 11.83zm-19.71-22.22c5.27-4.08 11.56.33 15 4.56a21.12 21.12 0 0 1 4.88 14.5c-7.13-2.6-30.93-10.48-19.88-19.06z" fill="#3e3a39"/><path d="m247.1 149.22c5.78-5.46 15.09-5.26 20.26-11.64 4.15-5.12 2.41-11.82-3-15.18s-11.8-1.86-16.15 2.47c-6.35 6.32-6.06 15.72-4.54 23.91.33 1.69 3.14 1.96 3.43.44zm2.54-20.66c4.1-5.32 15.15-7.57 16.37 1.42.88 6.48-6.36 9.39-11.3 11.27a36.66 36.66 0 0 0 -8.16 3.94c-.76-5.76-.55-11.87 3.09-16.63z" fill="#3e3a39"/><path d="m165.4 240.24-57.7 2.12a1.49 1.49 0 0 0 -1.45 1.23l-19.86 75.53c-.36 1.4-.73 2.8-1.1 4.2q-9.2-35.2-18.4-70.39l-2.89-11.19a2.07 2.07 0 0 0 -2-1.5l-49.74-2.12a1.43 1.43 0 0 0 -1.45 1.22q-2.26 59.37-4.44 118.73-.32 8.44-.62 16.88a1.74 1.74 0 0 0 1 1.54 1.83 1.83 0 0 0 1.09.36l26.87.2a1.44 1.44 0 0 0 1.45-1.22q2.63-44.58 5.23-89.16c.08-1.41.17-2.82.25-4.24l22.27 65.16q1.79 5.21 3.56 10.41a2.07 2.07 0 0 0 1.9 1.11l32.78-.88a1.5 1.5 0 0 0 1.34-.83l28-76.34.81-2.2 1.56 83q.12 6.57.25 13.13a1.94 1.94 0 0 0 2 1.9h29.89c.63 0 1.45-.51 1.45-1.22v-133.53a1.94 1.94 0 0 0 -2.05-1.9zm-65.22 115.64a.93.93 0 0 1 .19-.62 1.7 1.7 0 0 0 -.19.62zm14.64-39.88q-5.49 15-11 29.91c-1 2.72-2.49 5.62-3.1 8.46a3.14 3.14 0 0 1 -.27.64c-.45 0-1 .12-1.2.12l-29 .78q-12.38-36.15-24.75-72.32-1.77-5.2-3.56-10.42c-.46-1.35-3.24-1.57-3.34.12q-2.6 44.58-5.23 89.16-.33 5.73-.67 11.47l-23.38-.18q2.14-58.41 4.3-116.83l.57-15.61 46.69 2q9.9 37.88 19.79 75.74 1.47 5.6 2.93 11.19c.44 1.67 3 2.13 3.48.28q9.92-37.78 19.85-75.51 1.26-4.76 2.51-9.51l54.51-2v130.24h-26.38l-1.71-90.87-.25-13.13c0-1.53-2.71-2.92-3.39-1.07z" fill="#3e3a39"/><path d="m382.53 353.77-37.93.63-2.19-96.68q-.17-6.9-.32-13.8a1.94 1.94 0 0 0 -2-1.9l-29.74-.67a1.77 1.77 0 0 0 -.54.07 1.06 1.06 0 0 0 -.91 1.15q.75 58.85 1.49 117.69l.21 16.69a1.94 1.94 0 0 0 2.05 1.9h72.21a1.43 1.43 0 0 0 1.44-1.63l-1.7-22c-.12-.88-1.27-1.46-2.07-1.45zm-41.39 1.89a2 2 0 0 0 2.05 1.9l38-.63q.74 9.39 1.46 18.79h-68.65q-.73-57.89-1.46-115.78-.1-7.71-.2-15.43l26.27.59 2.19 96.75q.2 6.92.34 13.81z" fill="#3e3a39"/><path d="m493.53 256.89-24.53-14.45a1.9 1.9 0 0 0 -2.45.07l-33.47 35.57q-.25-17.74-.52-35.49a1.94 1.94 0 0 0 -2.05-1.9l-26.89.66c-.63 0-1.45.5-1.45 1.22v135a1.94 1.94 0 0 0 2.05 1.9h28.88c.62 0 1.46-.51 1.45-1.22q-.25-17.75-.52-35.48l32.58 34.63a2 2 0 0 0 2.47.51l23.16-15.17a1.41 1.41 0 0 0 .25-2.15q-24.39-25.15-48.8-50.29l50.19-51.24a1.22 1.22 0 0 0 .39-.92 1.28 1.28 0 0 0 -.74-1.25zm-59.9 80.91c-.74-.78-3.14-1.2-3.11.48q.27 19.05.56 38.11h-25.37v-131.95l23.42-.58q.28 19.13.56 38.26c0 1.48 2 2.62 3.17 1.41l35.66-37.91 21.33 12.59-49.85 50.89a1.46 1.46 0 0 0 .06 1.9l48.58 50.06-20.5 13.42z" fill="#3e3a39"/></svg>