<svg id="Layer_3" height="512" viewBox="0 0 64 64" width="512" xmlns="http://www.w3.org/2000/svg" data-name="Layer 3"><path d="m20.971 13.924 8.229-2.351a42.829 42.829 0 0 1 11.771-1.649 15 15 0 0 1 13.847 9.231 15.012 15.012 0 0 1 1.153 5.769v11l-12 5-23-3z" fill="#e2b62e"/><path d="m53.971 22.924a14.977 14.977 0 0 0 -3.413-9.524 14.984 14.984 0 0 0 -9.587-3.476 42.829 42.829 0 0 0 -11.771 1.649l-8.231 2.351v22.261l21 2.739 1.847-.769a16.5 16.5 0 0 0 10.155-15.231z" fill="#eed076"/><path d="m43.971 27.984v12.94l-23-3v-24l4.69-.78a15.591 15.591 0 0 1 2.64-.22 16.161 16.161 0 0 1 11.38 4.71 14.583 14.583 0 0 1 4.29 10.35z" fill="#fcf3a3"/><path d="m9.971 21.924a17.075 17.075 0 0 1 12.072-5 16.729 16.729 0 0 1 11.828 4.9 15.832 15.832 0 0 1 4.164 7.354 31.368 31.368 0 0 1 .936 7.608v7.138l-5 2-24-4z" fill="#e2b62e"/><path d="m9.971 21.924v18.167l23 3.833a7.953 7.953 0 0 0 5-7.385v-1.753a31.368 31.368 0 0 0 -.936-7.608 15.9 15.9 0 0 0 -.733-2.207 15.831 15.831 0 0 0 -2.431-3.147 16.729 16.729 0 0 0 -11.828-4.9 17.075 17.075 0 0 0 -12.072 5z" fill="#eed076"/><path d="m33.971 32.764v13.16l-24-4v-20a18.874 18.874 0 0 1 8.47-2h.06a18.874 18.874 0 0 1 8.47 2l.43.22a11.875 11.875 0 0 1 6.57 10.62z" fill="#fcf3a3"/><path d="m29.971 49.924 3-2-1.213-9.1a16.013 16.013 0 0 0 -5.235-9.854 16.017 16.017 0 0 0 -10.641-4.046l-6.544.55a8.721 8.721 0 0 0 -7.367 5.45l6 16z" fill="#e2b62e"/><path d="m39.346 49.215-.077-.128a9.105 9.105 0 0 1 -1.3-4.685 9.086 9.086 0 0 1 .468-2.879 10.368 10.368 0 0 0 .532-3.282v-2.014a4.307 4.307 0 0 1 .723-2.387 4.3 4.3 0 0 1 3.58-1.916h.83a2.592 2.592 0 0 1 2.46 1.776 2.592 2.592 0 0 0 1.638 1.634 2.59 2.59 0 0 1 1.771 2.457v4.9a31.4 31.4 0 0 1 -.315 4.439 5.581 5.581 0 0 1 -5.525 4.791 5.579 5.579 0 0 1 -4.785-2.706z" fill="#f4b858"/><path d="m49.971 37.791a2.59 2.59 0 0 0 -1.771-2.457 2.592 2.592 0 0 1 -1.638-1.634 2.592 2.592 0 0 0 -2.462-1.776h-.83a4.293 4.293 0 0 0 -1.875.438 4.3 4.3 0 0 0 -.428 1.865v2.013a10.368 10.368 0 0 1 -.532 3.282 9.1 9.1 0 0 0 .83 7.565l.077.128a5.569 5.569 0 0 0 7.59 1.947 5.546 5.546 0 0 0 .72-2.029 31.4 31.4 0 0 0 .315-4.439z" fill="#f8cd85"/><path d="m46.19 47.269a4.258 4.258 0 0 1 3.2-2.829l2.577-.516 2.978-1.489a4.843 4.843 0 0 1 2.168-.511 4.855 4.855 0 0 1 4.854 4.855 7.145 7.145 0 0 1 -7.145 7.145h-1.733a4.735 4.735 0 0 1 -2.118-.5 4.742 4.742 0 0 0 -2.118-.5 2.612 2.612 0 0 1 -2.477-1.785l-.271-.813a2.63 2.63 0 0 1 -.134-.825v-.886a4.25 4.25 0 0 1 .219-1.346z" fill="#f4a93b"/><path d="m29.971 49.924-22-3-6-16a14.981 14.981 0 0 1 9-3h2.15a14.873 14.873 0 0 1 3.64.45.936.936 0 0 1 .16.04 15.435 15.435 0 0 1 9.35 6.79c.02.04.05.08.07.12a15.432 15.432 0 0 1 2.14 5.63z" fill="#fcf3a3"/><path d="m51.971 52.424a4.735 4.735 0 0 0 2.118.5h1.737a7.111 7.111 0 0 0 4.527-1.618 7.113 7.113 0 0 0 1.618-4.527 4.854 4.854 0 0 0 -7.022-4.344l-2.978 1.489-2.577.516a4.256 4.256 0 0 0 -1.627.708 4.2 4.2 0 0 0 -.8 2.467v.885a2.63 2.63 0 0 0 .134.825l.271.813a2.612 2.612 0 0 0 2.477 1.785 4.742 4.742 0 0 1 2.122.501z" fill="#f4b858"/><g fill="#eed076"><path d="m11 43h2v2h-2z"/><path d="m8 38h2v2h-2z"/><path d="m12 39h2v2h-2z"/><path d="m15 44h2v2h-2z"/><path d="m6 31h2v2h-2z"/></g><path d="m56 45h2v2h-2z" fill="#9d887f"/><path d="m41 37h2v2h-2z" fill="#9d887f"/><path d="m45 40h2v2h-2z" fill="#9d887f"/><path d="m40 45h2v2h-2z" fill="#9d887f"/><path d="m50 49h2v2h-2z" fill="#9d887f"/><path d="m57.146 41a5.889 5.889 0 0 0 -2.616.616l-.963.482c-.865.432-1.438.719-1.819.933l-.759.152c0-.138.011-.276.011-.414v-3.6l5.385-2.244a1 1 0 0 0 .615-.925v-11a16 16 0 0 0 -16-16 43.8 43.8 0 0 0 -12.044 1.687l-8.23 2.352v.013a.99.99 0 0 0 -.726.948v2.128a17.924 17.924 0 0 0 -10.668 5.129l-.015.014-.024.022a1 1 0 0 0 -.293.707v2.6a9.657 9.657 0 0 0 -7.929 6.032h.011a.987.987 0 0 0 -.019.718l6 16a1 1 0 0 0 .8.64l22 3a1.02 1.02 0 0 0 .137.01.992.992 0 0 0 .544-.184l.011.016 3-2a1 1 0 0 0 .436-.964l-.117-.878a1.069 1.069 0 0 0 .126.01.99.99 0 0 0 .369-.076l2.721-1.088a10.1 10.1 0 0 0 1.346 3.834l.079.131a6.612 6.612 0 0 0 5.645 3.199 6.533 6.533 0 0 0 1.957-.3 3.6 3.6 0 0 0 2.765 1.3 3.743 3.743 0 0 1 1.671.4 5.764 5.764 0 0 0 2.565.6h1.736a8.155 8.155 0 0 0 8.146-8.146 5.861 5.861 0 0 0 -5.854-5.854zm-3.223-21.384a13.922 13.922 0 0 1 1.077 5.384v10.333l-4.106 1.711a3.578 3.578 0 0 0 -2.349-2.583 1.6 1.6 0 0 1 -1.006-1 3.575 3.575 0 0 0 -2.539-2.344v-3.057a15.526 15.526 0 0 0 -4.578-11.052 16.948 16.948 0 0 0 -9.39-4.777 41.8 41.8 0 0 1 9.968-1.231 13.962 13.962 0 0 1 12.923 8.616zm-31.923-4.769 3.851-.641a15.089 15.089 0 0 1 13.157 4.216 13.541 13.541 0 0 1 3.992 9.638v2.959a5.276 5.276 0 0 0 -3.316 1.413 32.28 32.28 0 0 0 -.651-3.421 16.824 16.824 0 0 0 -4.427-7.819 17.608 17.608 0 0 0 -12.535-5.192c-.024 0-.047 0-.071 0zm16 23.468a9.4 9.4 0 0 1 -.48 2.967 10.062 10.062 0 0 0 -.489 2.429l-2.031.812v-11.678a12.876 12.876 0 0 0 -7.122-11.524l-.431-.216a20.326 20.326 0 0 0 -11.483-1.905 16.05 16.05 0 0 1 6.107-1.2 15.624 15.624 0 0 1 11.121 4.606 14.842 14.842 0 0 1 3.9 6.891 30.4 30.4 0 0 1 .908 7.364zm-29.273 7.775-5.52-14.72a14.1 14.1 0 0 1 7.793-2.37h2.153a14.2 14.2 0 0 1 3.475.438 14.647 14.647 0 0 1 10.9 11.8l1.265 7.586zm22.005 2.22-1.233-7.4a16.649 16.649 0 0 0 -12.466-13.432 16 16 0 0 0 -3.88-.478h-2.153a16.029 16.029 0 0 0 -5.371.944 7.7 7.7 0 0 1 3.821-1.4l6.46-.544a15.016 15.016 0 0 1 14.89 13.032l1.131 8.482zm2.046-9.542a17.01 17.01 0 0 0 -16.937-14.768h-.015l-4.826.409v-1.779a18.363 18.363 0 0 1 15.553.265l.43.215a10.885 10.885 0 0 1 5.908 8.2 11.043 11.043 0 0 1 .109 1.535v7.586zm7.455 10.011-.078-.131a8.1 8.1 0 0 1 -.738-6.734 11.374 11.374 0 0 0 .583-3.6v-2.014a3.3 3.3 0 0 1 3.3-3.3h.83a1.59 1.59 0 0 1 1.51 1.088 3.606 3.606 0 0 0 2.269 2.27 1.59 1.59 0 0 1 1.091 1.509v4.9c0 .278-.014.556-.022.834a5.259 5.259 0 0 0 -3.707 3.425 5.255 5.255 0 0 0 -.271 1.665v.885a3.573 3.573 0 0 0 .186 1.143l.048.146a4.538 4.538 0 0 1 -5-2.086zm14.621 4.221h-1.736a3.743 3.743 0 0 1 -1.671-.4 5.764 5.764 0 0 0 -2.565-.6 1.608 1.608 0 0 1 -1.528-1.1l-.272-.813a1.6 1.6 0 0 1 -.082-.511v-.885a3.261 3.261 0 0 1 2.619-3.191 25.424 25.424 0 0 0 2.822-.64l.017.032 2-1 .963-.482a3.856 3.856 0 0 1 5.579 3.444 6.153 6.153 0 0 1 -6.146 6.146z"/><path d="m56 45h2v2h-2z"/><path d="m41 37h2v2h-2z"/><path d="m45 40h2v2h-2z"/><path d="m40 45h2v2h-2z"/><path d="m11 43h2v2h-2z"/><path d="m8 38h2v2h-2z"/><path d="m12 39h2v2h-2z"/><path d="m15 44h2v2h-2z"/><path d="m6 31h2v2h-2z"/><path d="m50 49h2v2h-2z"/></svg>