<svg id="Layer_5" enable-background="new 0 0 64 64" height="512" viewBox="0 0 64 64" width="512" xmlns="http://www.w3.org/2000/svg"><g><g><path d="m16.74 49.46c-1.57 1.36-3.81.16-5.03-1.06-.62.09-1.33.16-1.96.07-.95 2.83-.18 5.99 2.23 8.17.85.77 1.8 1.32 2.82 1.65-.03-.04-.06-.07-.09-.11-2.3-3.11.11-6.78 2.07-8.67z" fill="#7aa822"/><g><path d="m7.92 33h9.66l1.17 4.73c-.01 0-.03-.01-.04-.01-.76-1.47-3.42-2.73-5.39-1.72-1.02.52-1.64 1.55-1.9 2.63h-.01c-1.39-.41-3.37-.25-4.41.78-1.42 1.42-1.14 4.06-.12 5.48-.82-.71-2.31-1.98-2.65-3.06-1.01-3.15 1.16-6.84 4.32-7.85-.28-.33-.49-.65-.63-.98z" fill="#7aa822"/></g><g fill="#7aa822"><path d="m23.18 33-3.28 5.41c-.35-.3-.75-.56-1.15-.68l-1.17-4.73z"/><path d="m27.25 48.29c-2.12-2.37-5.54-1.64-7.86-.54l-.1-.2c1.96-1.01 1.59-3.46.83-4.93.53-.99 1.08-2.27.63-3.14-.18-.35-.49-.74-.85-1.06v-.01l3.28-5.41h8.34c-.13.3-.24.6-.32.92-.66 2.49-1.24 5-2.05 7.44-.73 2.18-1.41 4.68-1.89 6.92z"/><path d="m26.02 29.66c2.16-.38 4.62.59 6.11 2.16-.24.37-.45.76-.61 1.18h-8.34-5.6-9.66c-.78-1.77.31-3.49 2.08-5-.53-2.14 1.25-4.07 5-5 2.49-.62 4.52-.48 5.76.31.64.4 1.06.97 1.24 1.69 2.69.61 4.63 1.96 4.02 4.66z"/></g></g><g fill="#607f0a"><path d="m16.74 49.46c-1.57 1.36-3.81.16-5.03-1.06-.62.09-1.33.16-1.96.07-.95 2.83-.18 5.99 2.23 8.17.85.77 1.8 1.32 2.82 1.65-.03-.04-.06-.07-.09-.11-2.3-3.11.11-6.78 2.07-8.67z"/><path d="m11.12 38.67.27.04c.056-.238.137-.471.227-.7-1.48-1.068-2.891-2.251-4.218-3.521-2.509 1.431-4.051 4.591-3.169 7.341.34 1.08 1.83 2.35 2.65 3.06-1.02-1.42-1.3-4.06.12-5.48 1.04-1.03 2.73-1.15 4.12-.74z"/><path d="m20.189 42.485c-.023.044-.046.091-.069.135.76 1.47 1.13 3.92-.83 4.93l.1.2c2.28-1.08 5.64-1.8 7.77.43l.18-.18c.302-1.41.67-2.807 1.07-4.196-2.814.043-5.572-.433-8.221-1.319z"/></g><path d="m57.4 33h-13.37l.58-5.83.39.04 13.27 2.36c-.19.74-.49 1.94-.87 3.43z" fill="#f26a07"/><path d="m42.42 33h-10.42-.48c.17-.43.38-.83.62-1.2 1.1-1.7 2.84-2.8 4.79-2.8h.07c1.14 0 2.21.38 3.12 1.04.16.11.31.23.46.36.78.68 1.42 1.57 1.84 2.6z" fill="#8ac926"/><path d="m44.03 33h13.37c-.61 2.4-1.43 5.55-2.24 8.75-.95-.48-2.02-.75-3.16-.75-.01 0-.03 0-.04 0l-7.71-1.37c-.23-.77-.44-1.55-.64-2.33z" fill="#f26a07"/><path d="m46.68 52.53-.01.01c-1.13 4.28-5.05 7.46-9.67 7.46h-.07c-1.63 0-3.19-.4-4.57-1.11s-2.59-1.73-3.5-2.94h-.01c.73-2.38.34-5.08-1.27-7.27-.1-.14-.21-.27-.33-.39l.01-.01c.48-2.24 1.16-4.74 1.89-6.92.81-2.44 1.39-4.95 2.05-7.44.08-.32.19-.62.32-.92h.48 10.42c.12.3.23.6.31.92.3 1.13.59 2.26.88 3.38.2.78.41 1.56.64 2.33.17.58.35 1.16.54 1.73.25.76.79 2.27 1.09 3.24-.56 1.01-.88 2.16-.88 3.4 0 1.74.62 3.31 1.68 4.53zm-5.68-3.53c0-3.31-2.34-7-4-7s-4 3.69-4 7 2.34 4 4 4 4-.69 4-4z" fill="#8ac926"/><path d="m6.88 44.89c-1.02-1.42-1.3-4.06.12-5.48 1.04-1.03 3.02-1.19 4.41-.78-.24 1-.17 2.05.2 2.76-.29.81-.11 1.98.25 2.68.45.87 1.81 1.16 2.93 1.3.76 1.48 2.54 3.19 4.5 2.18l.1.2c-.69.32-1.28.67-1.71.99-.27.2-.58.46-.9.77l-.04-.05c-1.57 1.36-3.81.16-5.03-1.06-.62.09-1.33.16-1.97.07-.53-.06-1.01-.23-1.35-.57-.59-.6-1.19-1.72-1.19-2.61-.12-.12-.23-.25-.32-.4z" fill="#8ac926"/><path d="m41.06 23.79c.38 2.18.02 4.33-.91 6.21l-.03.04c-.91-.66-1.98-1.04-3.12-1.04h-.07c-1.96 0-3.7 1.11-4.8 2.82-1.49-1.57-3.95-2.54-6.11-2.16.61-2.7-1.33-4.05-4.02-4.66-.18-.72-.6-1.29-1.24-1.69 2.17-2.39 6.1-4.69 8.19-5.05 3.28-.56 11.13-.19 12.11 5.53z" fill="#ee2d02"/><path d="m41.18 26.19c-.09 1.34-.45 2.63-1.03 3.81l-.03.04c-.91-.66-1.98-1.04-3.12-1.04h-.07c-1.96 0-3.7 1.11-4.8 2.82-1.49-1.57-3.95-2.54-6.11-2.16.61-2.7-1.33-4.05-4.02-4.66-.18-.72-.6-1.29-1.24-1.69.66-.73 1.5-1.46 2.4-2.13 1.99.5 3.8 1.54 4.14 3.12.18.82.82 1.49 1.66 1.59 1.1.13 2.19.54 3.13 1.14.76.5 1.75.32 2.42-.29 1.02-.92 2.28-1.47 3.66-1.47h.07c1.07 0 2.07.33 2.94.92z" fill="#c92206"/><path d="m42.42 33h1.61l-.42 4.3c-.29-1.12-.58-2.25-.88-3.38-.08-.32-.19-.62-.31-.92z" fill="#9ac2d8"/><path d="m62.01 33.08-.01-.08h-4.6c-.62 2.42-1.43 5.59-2.24 8.76 2.28 1.14 3.84 3.51 3.84 6.24 0 3.87-3.13 7-7 7-.07 0-.14 0-.21-.01-.44 2.4-2.55 4.09-4.92 4.09-.29 0-.58-.03-.87-.08-.84-.15-1.59-.5-2.22-1l-.33-.38c-1.74 1.49-4 2.38-6.45 2.38h-.07c-1.63 0-3.16-.39-4.52-1.09-1.36-.69-2.55-1.69-3.46-2.91l-.11-.03c-.47 1.57-1.43 2.99-2.84 4.03-1.4 1.04-3.05 1.54-4.68 1.54-2.46 0-4.9-1.13-6.52-3.25-1.02-.33-1.97-.88-2.82-1.65-2.41-2.18-3.18-5.34-2.23-8.17-.53-.06-1.02-.23-1.36-.57-.59-.6-1.19-1.72-1.19-2.61-.12-.12-.23-.25-.32-.4-.82-.71-2.31-1.98-2.65-3.06-1.01-3.15 1.16-6.84 4.32-7.85-.28-.33-.49-.65-.63-.98h-5.92l-.01.08c-.66 3.94-.99 7.93-.99 11.92 0 9.94 8.06 18 18 18h2.32 10.68 13c9.94 0 18-8.06 18-18 0-3.99-.33-7.98-.99-11.92z" fill="#9ac2d8"/><path d="m63 45c0 9.94-8.06 18-18 18h-26c-5.48 0-10.4-2.45-13.68-6.32 3.15 2.7 7.22 4.32 11.68 4.32h26c9.94 0 18-8.06 18-18 0-3.34-.23-6.69-.7-10h1.7l.01.08c.66 3.94.99 7.93.99 11.92z" fill="#73bde5"/><path d="m22 63h-3c-4.46 0-8.53-1.62-11.68-4.32-3.87-3.28-6.32-8.2-6.32-13.68 0-3.99.33-7.98.99-11.92l.01-.08h3l-.01.08c-.66 3.94-.99 7.93-.99 11.92 0 5.48 2.45 10.4 6.32 13.68 3.15 2.7 7.22 4.32 11.68 4.32z" fill="#b9deef"/><path d="m11 1c5.52 0 10 4.48 10 10s-4.48 10-10 10-10-4.48-10-10 4.48-10 10-10zm-.56 15.83 6.19-8.67-3.26-2.32-3.81 5.33-2.36-1.77-2.4 3.2z" fill="#ffca3a"/><path d="m16.63 8.16-6.19 8.67-5.64-4.23 2.4-3.2 2.36 1.77 3.81-5.33z" fill="#8ac926"/><path d="m19.39 47.75c-.69.32-1.28.67-1.71.99-.27.2-.58.46-.9.77l-.04-.05c-1.57 1.36-3.81.16-5.03-1.06-.62.09-1.33.16-1.96.07-.53-.06-1.02-.23-1.36-.57-.59-.6-1.19-1.72-1.19-2.61-.12-.12-.23-.25-.32-.4-.78-1.08-1.12-2.86-.62-4.28.15.48.36.92.62 1.28.09.15.2.28.32.4 0 .89.6 2.01 1.19 2.61.34.34.83.51 1.36.57.63.09 1.34.02 1.96-.07 1.03 1.03 2.79 2.05 4.26 1.52.88.81 2.07 1.28 3.32.63z" fill="#7aa822"/><path d="m20.75 39.48c.45.87-.1 2.15-.63 3.14.76 1.47 1.13 3.92-.83 4.93s-3.74-.7-4.5-2.18c-1.12-.14-2.48-.43-2.93-1.3-.36-.7-.54-1.87-.25-2.68-.36-.69-.43-1.7-.22-2.68.26-1.11.89-2.18 1.93-2.71 1.69-.87 3.9-.06 4.96 1.12.18.19.32.39.43.6.41.11.82.37 1.18.68.37.33.68.72.86 1.08z" fill="#8ac926"/><path d="m20.72 45.27c-.06.92-.45 1.78-1.43 2.28-1.96 1.01-3.74-.7-4.5-2.18-1.12-.14-2.48-.43-2.93-1.3-.36-.7-.54-1.87-.25-2.68-.36-.69-.43-1.7-.22-2.68.17-.73.5-1.43 1-1.98-.21.97-.14 1.97.22 2.66-.29.81-.11 1.98.25 2.68.45.87 1.81 1.16 2.93 1.3.76 1.48 2.54 3.19 4.5 2.18.16-.08.3-.17.43-.28z" fill="#7aa822"/><path d="m31.08 14.61c.78-.42 1.68.31 1.42 1.16l-.6 1.98v.33c-1.14-.03-2.17.05-2.95.18-.79.14-1.79.5-2.86 1.03l-.1-.52-1.22-1.67c-.5-.66 0-1.58.78-1.58.06 0 .11 0 .17.01.44.07.87-.17 1.06-.58l.55-1.24c.28-.65 1.14-.79 1.63-.28l.93.98c.19.21.46.32.72.32.16 0 .32-.04.47-.12z" fill="#8ac926"/><path d="m58.62 16.55c2.72.48 4.7 2.1 4.22 4.81-.48 2.72-2.09 4.71-4.81 4.23l-.05.03c-.99-2.02-3.15-3.65-5.34-4.03-.37-.07-.76-.1-1.15-.1-1.88 0-3.89.76-5.24 2.04l-.04-.04c-2.72-.48-3.54-2.9-3.06-5.62s2.9-3.55 5.62-3.07c.48-2.72 3.08-4.53 5.8-4.05 2.72.49 4.53 3.08 4.05 5.8z" fill="#8ac926"/><path d="m43.037 19.302c.009 2.094.946 3.795 3.173 4.188l.04.04c1.35-1.28 3.36-2.04 5.24-2.04.39 0 .78.03 1.15.1 2.19.38 4.35 2.01 5.34 4.03l.05-.03c2.72.48 4.33-1.51 4.81-4.23.328-1.854-.495-3.197-1.918-4.014-5.08 3.013-10.978 3.988-17.885 1.956z" fill="#7aa822"/><path d="m57.98 25.62c.48.97.7 2.04.51 3.1 0 0-.08.3-.22.85l-13.27-2.36-.39-.04.09-.9c.19-1.06.76-1.99 1.55-2.74 1.35-1.28 3.36-2.04 5.24-2.04.39 0 .78.03 1.15.1 2.19.38 4.35 2.01 5.34 4.03z" fill="#f26a07"/><path d="m55.16 41.76c2.28 1.14 3.84 3.51 3.84 6.24 0 3.87-3.13 7-7 7-.07 0-.14 0-.21-.01-2.06-.05-3.89-1-5.12-2.47-1.05-1.22-1.67-2.79-1.67-4.52 0-1.24.32-2.39.88-3.4 1.19-2.14 3.46-3.59 6.08-3.6h.04c1.14 0 2.21.27 3.16.76zm-2.16 4.24c0-1.1-.9-2-2-2s-2 .9-2 2 .9 2 2 2 2-.9 2-2z" fill="#6a4c93"/><path d="m59 48c0 3.87-3.13 7-7 7-.07 0-.14 0-.21-.01-2.06-.05-3.89-1-5.12-2.47-.87-1.01-1.45-2.27-1.61-3.66.06.09.13.18.2.26 1.23 1.47 3.06 2.42 5.12 2.47.07.01.14.01.21.01 3.87 0 7-3.13 7-7 0-.3-.02-.6-.06-.89.92 1.18 1.47 2.67 1.47 4.29z" fill="#5c3d99"/><path d="m57.576 24.918c-.42 1.462-.888 2.901-1.43 4.275l2.123.378c.14-.55.22-.85.22-.85.19-1.06-.03-2.13-.51-3.1-.117-.241-.254-.475-.403-.703z" fill="#e25b00"/><path d="m45.272 39.812 6.688 1.188h.04c1.14 0 2.21.27 3.16.76.81-3.17 1.62-6.34 2.24-8.76.38-1.49.68-2.69.87-3.43l-2.123-.378c-2.103 5.34-5.292 9.695-10.875 10.62z" fill="#e25b00"/><circle cx="51" cy="46" fill="#828282" r="2"/><path d="m44.25 39.63 7.71 1.37c-2.62.01-4.89 1.46-6.08 3.6-.13-.41-.3-.91-.47-1.42-.23-.69-.47-1.38-.62-1.82-.19-.57-.37-1.15-.54-1.73z" fill="#e25b00"/><path d="m46.67 52.52c1.23 1.47 3.06 2.42 5.12 2.47-.44 2.4-2.55 4.09-4.92 4.09-.29 0-.58-.03-.87-.08-.84-.15-1.59-.5-2.22-1l-.33-.38c1.55-1.31 2.7-3.08 3.22-5.1z" fill="#e25b00"/><path d="m46.67 52.52c-.52 2.02-1.67 3.79-3.22 5.1-1.74 1.49-4 2.38-6.45 2.38h-.07c-1.63 0-3.16-.39-4.52-1.09-1.36-.69-2.55-1.69-3.46-2.91l-.11-.03c.38-1.23.46-2.54.23-3.82.89 1.15 2.04 2.1 3.34 2.76 1.36.7 2.89 1.09 4.52 1.09h.07c2.45 0 4.71-.89 6.45-2.38.88-.75 1.64-1.64 2.21-2.65.27.56.61 1.08 1.01 1.55z" fill="#7aa822"/><path d="m37 42c1.66 0 4 3.69 4 7s-2.34 4-4 4-4-.69-4-4 2.34-7 4-7z" fill="#7d5a34"/><path d="m41 49c0 3.31-2.34 4-4 4s-4-.69-4-4c0-.53.06-1.08.17-1.61.56 2.12 2.43 2.61 3.83 2.61s3.27-.49 3.83-2.61c.11.53.17 1.08.17 1.61z" fill="#774d23"/><path d="m14.8 58.29c-.03-.04-.06-.07-.09-.11-2.3-3.11.11-6.78 2.07-8.67.32-.31.63-.57.9-.77.43-.32 1.02-.67 1.71-.99 2.28-1.08 5.64-1.8 7.77.43.15.15.29.32.42.5 1.62 2.19 2 4.9 1.26 7.29-.47 1.57-1.43 2.99-2.84 4.03-1.4 1.04-3.05 1.54-4.68 1.54-2.46 0-4.9-1.13-6.52-3.25z" fill="#ee2d02"/><path d="m28.84 55.97c-.47 1.57-1.43 2.99-2.84 4.03-1.4 1.04-3.05 1.54-4.68 1.54-2.46 0-4.9-1.13-6.52-3.25-.03-.04-.06-.07-.09-.11-1.31-1.78-1.09-3.74-.29-5.44.08.15.18.29.29.44.03.04.06.07.09.11 1.62 2.12 4.06 3.25 6.52 3.25 1.63 0 3.28-.5 4.68-1.54 1.38-1.02 2.33-2.4 2.81-3.93.52 1.61.52 3.33.03 4.9z" fill="#c92206"/><path d="m36.479 44.719c-1.287 0-1.289 2 0 2 1.287 0 1.289-2 0-2z" fill="#f9dec5"/><path d="m4.344 45c-2.206 0-2.21 3.4 0 3.4 2.206 0 2.21-3.4 0-3.4z" fill="#e8f7f9"/><path d="m5.606 48.767c-1.287 0-1.289 2 0 2 1.287 0 1.289-2 0-2z" fill="#e8f7f9"/><g fill="#f9e4e1"><path d="m36.812 21.688c-.643 0-.645 1 0 1 .644 0 .645-1 0-1z"/><path d="m48.437 24.688c-.643 0-.645 1 0 1 .644 0 .645-1 0-1z"/><g><path d="m6.408 3.932c-1.783.74-.637 3.512 1.149 2.771 1.783-.74.637-3.512-1.149-2.771z"/><path d="m4.894 6.319c-.594.246-.212 1.17.383.923.595-.246.213-1.17-.383-.923z"/></g><path d="m24.375 49.061c-.833 0-.834 1.294 0 1.294.833 0 .834-1.294 0-1.294z"/></g><path d="m55.167 44c-.858 0-.859 1.333 0 1.333.858 0 .859-1.333 0-1.333z" fill="#efe8f9"/><path d="m50.25 23.375c-1.287 0-1.289 2 0 2 1.287 0 1.289-2 0-2z" fill="#f9e4e1"/><path d="m35.312 20.125c-1.287 0-1.289 2 0 2 1.287 0 1.29-2 0-2z" fill="#f9e4e1"/><g fill="#472b3c"><path d="m11 22c6.065 0 11-4.935 11-11s-4.935-11-11-11-11 4.935-11 11 4.935 11 11 11zm0-20c4.962 0 9 4.037 9 9s-4.038 9-9 9-9-4.037-9-9 4.038-9 9-9z"/><path d="m10.438 17.828c.051 0 .102-.004.153-.012.266-.041.504-.188.661-.407l6.19-8.666c.154-.216.216-.483.173-.745s-.189-.495-.405-.649l-3.256-2.325c-.215-.154-.484-.216-.746-.173-.262.044-.495.189-.649.405l-3.215 4.502-1.544-1.158c-.212-.16-.479-.228-.741-.191-.263.038-.499.178-.659.391l-2.4 3.2c-.159.212-.228.479-.19.741.037.263.178.499.39.658l5.638 4.229c.174.131.385.2.6.2zm-3.038-7.028 1.563 1.172c.215.162.486.229.753.188.266-.041.504-.188.661-.407l3.228-4.521 1.628 1.163-5.014 7.02-4.019-3.016z"/><path d="m37 54c2.417 0 5-1.313 5-5 0-3.419-2.472-8-5-8s-5 4.581-5 8c0 3.687 2.583 5 5 5zm0-11c.817 0 3 2.918 3 6 0 1.99-1.009 3-3 3s-3-1.01-3-3c0-3.082 2.183-6 3-6z"/><path d="m62.986 32.836c-.08-.482-.497-.836-.986-.836h-3.32l.792-3.108c.134-.754.1-1.522-.077-2.283.972-.116 1.849-.513 2.572-1.213.926-.896 1.568-2.229 1.857-3.856.485-2.729-1.119-4.92-4.13-5.768.022-1.255-.349-2.481-1.082-3.53-.918-1.314-2.292-2.192-3.87-2.472-2.939-.519-5.763 1.199-6.714 3.93-1.265-.1-2.406.081-3.343.534-1.365.661-2.237 1.857-2.521 3.459-.524 2.951.429 5.254 2.442 6.282-.437.656-.755 1.388-.898 2.195l-.58 5.83h-.098c-.441-.858-1.01-1.611-1.685-2.223.814-1.959 1.06-4.073.701-6.16-.494-2.869-2.532-4.912-5.896-5.907-.994-.294-2.025-.47-3.018-.56l.33-1.09c.234-.775-.021-1.608-.647-2.121-.625-.512-1.492-.597-2.199-.213l-.931-.983c-.46-.485-1.127-.709-1.787-.593-.659.113-1.213.546-1.484 1.157l-.543 1.233c-.801-.123-1.589.247-2.008.939-.419.693-.38 1.563.1 2.214l.883 1.201c-1.557.894-3.11 2.04-4.299 3.217-1.463-.592-3.456-.655-5.783-.082-2.027.5-3.568 1.279-4.581 2.314-.926.947-1.36 2.091-1.254 3.273-1.067.989-1.744 1.957-2.063 2.947-.159.483-.218.963-.194 1.437h-4.672c-.489 0-.92.436-1 .918-.664 3.981-1 8.047-1 12.082 0 10.477 8.523 19 19 19h13 13c10.477 0 19-8.523 19-19 0-4.035-.336-8.101-1.014-12.164zm-5.462-4.421-11.805-2.096c.572-2.65 4.117-4.212 6.751-3.75 2.657.473 5.475 3.208 5.054 5.846zm-13.391-10.372c.173-.971.638-1.628 1.424-2.008.778-.377 1.83-.46 3.039-.247.263.048.53-.014.748-.164.218-.152.366-.384.412-.646.386-2.172 2.466-3.617 4.638-3.239 1.052.187 1.968.772 2.58 1.648s.846 1.938.659 2.989c-.097.544.266 1.063.809 1.159 1.185.211 3.888.988 3.415 3.654-.215 1.21-.657 2.167-1.278 2.768-.542.525-1.203.734-1.997.676-.235-.39-.505-.772-.823-1.139-1.308-1.515-3.108-2.569-4.938-2.895-2.24-.402-4.898.302-6.781 1.819-2.293-.65-2.107-3.247-1.907-4.375zm1.369 10.269 11.534 2.048-.418 1.64h-11.481zm-25.314 32.138c-1.872-.302-3.531-1.317-4.67-2.859-2.384-3.228 1.57-7.169 2.759-8.047.935-.691 2.606-1.499 4.232-1.747.35-.053.684-.08 1.002-.08 1.408 0 2.504.521 3.268 1.555 2.348 3.179 1.732 7.631-1.373 9.924-1.501 1.108-3.352 1.552-5.218 1.254zm-11.335-25.522c.318-.103.564-.356.656-.679.024-.082.035-.166.037-.249h7.247l.276 1.117c-1.332-.557-2.902-.676-4.205-.004-.932.481-1.65 1.318-2.101 2.376-1.547-.196-3.37.12-4.473 1.218-.669.667-1.049 1.555-1.19 2.5-.571-2.472 1.168-5.45 3.753-6.279zm21.298-.928c-.151.568-.299 1.137-.446 1.706-.455 1.768-.926 3.596-1.508 5.341-.569 1.706-1.113 3.627-1.556 5.465-1.223-.71-2.719-.953-4.435-.692-.191.029-.379.07-.567.11.041-.197.072-.399.085-.611.052-.848-.125-1.799-.492-2.677.528-1.078 1-2.471.405-3.62-.121-.235-.295-.48-.492-.722l2.597-4.3zm-17.656 6.932c-.265-.513-.298-1.355-.085-2.147.235-.875.736-1.565 1.374-1.895.349-.181.735-.259 1.126-.259 1.228 0 2.513.768 2.916 1.547.081.158.211.275.358.369.078.054.16.1.251.13.004.001.007.004.01.005.528.148 1.17.782 1.417 1.259.083.161.188.697-.622 2.207-.156.29-.159.639-.008.932.351.68.537 1.471.497 2.116-.043.698-.336 1.178-.897 1.467-1.755.908-3.141-1.721-3.154-1.747-.151-.293-.437-.492-.764-.533-1.701-.213-2.078-.61-2.16-.771-.246-.476-.391-1.367-.206-1.884.093-.261.074-.55-.053-.796zm7.1-3.932-.741-3h2.553zm-11.965 7.223c-.7-1.071-.951-3.079.072-4.1.563-.561 1.638-.76 2.594-.682-.047.726.029 1.43.252 2.027-.219 1.044.025 2.282.428 3.062.594 1.149 2.001 1.571 3.186 1.765.576.927 1.372 1.704 2.281 2.151-.097.047-.192.1-.272.18-.277.277-.759.614-1.714.339-.677-.195-1.438-.67-2.037-1.271-.224-.225-.542-.33-.855-.283-1.623.24-2.233.018-2.462-.213-.479-.48-.9-1.371-.9-1.906 0-.265-.105-.519-.292-.706-.092-.093-.176-.21-.258-.332l.005-.005zm2.88 5.285c.296-.006.588-.026.864-.057.769.673 1.669 1.187 2.529 1.435.128.037.254.057.38.083-.975 1.488-1.657 3.275-1.457 5.075-.057-.049-.119-.091-.175-.142-1.859-1.686-2.636-4.08-2.141-6.394zm17.877-1.424c-.013-.018-.029-.032-.042-.05.463-2.085 1.088-4.37 1.75-6.355.604-1.812 1.084-3.674 1.548-5.474.174-.675.348-1.35.528-2.022.017-.064.045-.121.063-.184h9.466c.019.063.046.12.063.184.18.672.354 1.347.527 2.021.464 1.801.944 3.663 1.548 5.476.088.263.209.616.344 1.006.205.594.437 1.269.623 1.84-.51 1.052-.805 2.228-.805 3.474 0 1.772.586 3.406 1.565 4.733-1.19 3.711-4.645 6.267-8.631 6.267-2.682 0-5.25-1.231-6.98-3.296.604-2.538.119-5.338-1.567-7.62zm17.839-5.606c-.052-.15-.103-.3-.152-.443-.132-.383-.251-.729-.337-.987-.016-.047-.028-.097-.043-.144l2.014.358c-.543.345-1.039.753-1.482 1.216zm.882 11.838c.963.747 2.096 1.284 3.335 1.53-.768 1.551-2.475 2.493-4.267 2.17-.428-.076-.837-.229-1.216-.436.894-.939 1.624-2.04 2.148-3.264zm4.892-.316c-3.309 0-6-2.691-6-6s2.691-6 6-6 6 2.691 6 6-2.691 6-6 6zm.058-13.997-7.011-1.246c-.147-.522-.288-1.038-.425-1.56l.316-3.197h11.17l-1.631 6.397c-.763-.249-1.575-.388-2.419-.394zm-18.812-8.003c.939-1.231 2.286-2 3.754-2 1.424 0 2.756.769 3.691 2zm6.829-8.043c.272 1.579.117 3.179-.435 4.683-.843-.399-1.753-.64-2.706-.64-1.883 0-3.651.893-4.94 2.36-1.4-1.094-3.167-1.745-4.863-1.781-.044-1.572-.9-3.477-4.36-4.418-.141-.33-.338-.62-.563-.889 2.127-2.002 5.276-3.746 6.909-4.026 1.628-.28 4.258-.27 6.465.382 2.62.775 4.132 2.231 4.493 4.329zm-14.511-7.44c.887.141 1.762-.34 2.126-1.163l.541-1.235.93.982c.618.651 1.602.811 2.385.381l-.482 1.594c-.876.017-1.664.092-2.286.199-.626.107-1.358.352-2.137.693zm-16.798 14.661c.239-.742.873-1.556 1.883-2.417.289-.245.413-.633.322-1.001-.181-.733.028-1.393.638-2.018.738-.755 1.994-1.367 3.631-1.771 3.137-.773 5.408-.275 5.79 1.27.091.367.381.652.751.735 3.851.867 3.426 2.754 3.267 3.464-.073.326.021.668.252.91.231.241.569.352.897.295 1.515-.266 3.337.282 4.661 1.355h-6.334c-.073-.214-.208-.41-.417-.536-.474-.287-1.087-.134-1.373.34l-.119.196h-4.255l-.344-1.394c-.133-.536-.676-.861-1.21-.73-.536.133-.864.675-.731 1.211l.225.913h-7.61c-.028-.269-.015-.54.076-.822zm-6.766 13.822c0-3.649.283-7.323.852-11h3.462c-2.57 1.819-3.968 5.232-3.035 8.138.388 1.21 1.633 2.371 2.88 3.455.026.034.045.076.072.109.141 1.092.802 2.25 1.456 2.905.249.251.538.435.849.571-.609 2.984.397 6.051 2.774 8.205.852.772 1.826 1.351 2.888 1.748 1.046 1.283 2.383 2.254 3.902 2.822-8.955-.472-16.1-7.883-16.1-16.953zm43 17h-13-7.67c.798-.289 1.563-.678 2.264-1.195 1.111-.821 1.965-1.86 2.569-3.013 2.07 2.024 4.875 3.208 7.837 3.208 2.353 0 4.565-.758 6.384-2.059.724.522 1.559.887 2.441 1.044.353.063.705.093 1.051.093 2.565 0 4.86-1.661 5.675-4.105 4.154-.286 7.449-3.748 7.449-7.973 0-2.821-1.472-5.3-3.684-6.725l1.854-7.275h2.978c.566 3.632.852 7.329.852 11 0 9.374-7.626 17-17 17z"/><path d="m51 43c-1.654 0-3 1.346-3 3s1.346 3 3 3 3-1.346 3-3-1.346-3-3-3zm0 4c-.551 0-1-.448-1-1s.449-1 1-1 1 .448 1 1-.449 1-1 1z"/></g></g></svg>